<?xml version="1.0" encoding="utf-8"?>
<!-- Generator: Adobe Illustrator 24.2.3, SVG Export Plug-In . SVG Version: 6.00 Build 0)  -->
<svg version="1.1" id="b692d93a-f629-4531-a33b-6f799117a7ad"
	 xmlns="http://www.w3.org/2000/svg" xmlns:xlink="http://www.w3.org/1999/xlink" x="0px" y="0px" viewBox="0 0 888 567.3"
	 style="enable-background:new 0 0 888 567.3;" xml:space="preserve">
<style type="text/css">
	.st0{fill:#E6E6E6;}
	.st1{fill:#FFFFFF;}
	.st2{fill:#6495ED;}
	.st3{fill:#3F3D56;}
	.st4{fill:#FBBEBE;}
	.st5{fill:#2F2E41;}
</style>
<rect x="370.8" y="0" class="st0" width="420" height="550"/>
<rect x="395.8" y="28.5" class="st1" width="370" height="100"/>
<rect x="396.8" y="162.5" class="st1" width="230" height="360"/>
<rect x="515.2" y="65.9" class="st0" width="93.4" height="7"/>
<rect x="503.6" y="84.1" class="st0" width="117.6" height="7"/>
<rect x="469.2" y="245.6" class="st0" width="93.4" height="7"/>
<rect x="418.4" y="266.2" class="st2" width="144.3" height="7"/>
<rect x="443.6" y="285.8" class="st0" width="117.6" height="7"/>
<rect x="494" y="307.4" class="st0" width="68.6" height="7"/>
<rect x="459.1" y="328.4" class="st2" width="103.6" height="7"/>
<rect x="593.8" y="243.4" class="st0" width="11.4" height="11.4"/>
<rect x="593.8" y="264" class="st2" width="11.4" height="11.4"/>
<rect x="593.8" y="283.6" class="st0" width="11.4" height="11.4"/>
<rect x="593.8" y="305.2" class="st0" width="11.4" height="11.4"/>
<rect x="593.8" y="326.2" class="st2" width="11.4" height="11.4"/>
<rect x="469.2" y="349.6" class="st0" width="93.4" height="7"/>
<rect x="418.4" y="370.2" class="st2" width="144.3" height="7"/>
<rect x="443.6" y="389.8" class="st0" width="117.6" height="7"/>
<rect x="494" y="411.4" class="st0" width="68.6" height="7"/>
<rect x="459.1" y="432.4" class="st0" width="103.6" height="7"/>
<rect x="593.8" y="347.4" class="st0" width="11.4" height="11.4"/>
<rect x="593.8" y="368" class="st2" width="11.4" height="11.4"/>
<rect x="593.8" y="387.6" class="st0" width="11.4" height="11.4"/>
<rect x="593.8" y="409.2" class="st0" width="11.4" height="11.4"/>
<rect x="593.8" y="430.2" class="st0" width="11.4" height="11.4"/>
<path class="st2" d="M675.2,78.5c0,16.4,13.3,29.7,29.7,29.7s29.7-13.3,29.7-29.7s-13.3-29.7-29.7-29.7
	C688.5,48.8,675.3,62.1,675.2,78.5z M713.9,66.6L713.9,66.6c0,4.9-4,8.9-8.9,8.9s-8.9-4-8.9-8.9s4-8.9,8.9-8.9
	C709.9,57.7,713.8,61.7,713.9,66.6z M687.1,91.1c0.1-5.9,11.9-9.2,17.8-9.2s17.7,3.3,17.8,9.2c-4,5.9-10.7,9.5-17.8,9.5
	C697.8,100.6,691.1,97,687.1,91.1z"/>
<rect x="0" y="548.8" class="st3" width="888" height="2.2"/>
<path class="st4" d="M191.4,183.5c-3.4,5.6-2.3,19.2-2.3,19.2l-15.8,19.2l-19.2-29.3c6.8-2.3,16.9-23.7,16.9-23.7
	S194.8,177.9,191.4,183.5z"/>
<circle class="st4" cx="186.9" cy="166.6" r="21.4"/>
<polygon class="st4" points="209.5,309.9 203.8,327.9 210.5,335.8 216.2,320 "/>
<path class="st5" d="M137.2,309.8c0,0-2.3,2.3-16.9,13.5s-12.4,99.2-12.4,99.2l-3.4,113.9l32.7-1.1v-88l19.2-72.2l3.4,74.4
	l-3.4,85.7l27.1-2.3l6.8-73.3c0,0,10.2-92.5,13.5-106s-3.4-41.7-3.4-41.7L137.2,309.8z"/>
<path class="st5" d="M158.7,533.1c0,0,0,16.9-1.1,18s4.5,4.5,4.5,4.5s-2.3,7.9,14.7,11.3s6.8-16.9,6.8-16.9l-3.4-10.2l-2.3-7.9
	L158.7,533.1z"/>
<path class="st5" d="M131.6,533.1c0,0,0,16.9,1.1,18s-4.5,4.5-4.5,4.5s2.3,7.9-14.7,11.3s-6.8-16.9-6.8-16.9l3.4-10.2l2.3-7.9
	L131.6,533.1z"/>
<path class="st0" d="M188.9,198.7l8.1,7.3l-5.6,67.7l13.5,50.8c0,0-14.7,7.9-37.2-3.4s-37.2-2.3-37.2-2.3l3.4-117.3l25.7-13.5
	l13.8,20.3L188.9,198.7z"/>
<path class="st5" d="M179,272.6c-1.1,21.4,20.3,75.6,29.3,75.6s1.1-23.7,2.3-29.3s-3.4-16.9-7.9-21.4s1.1-16.9,1.1-16.9l20.3-55.3
	c-1.1-10.2-30.5-24.8-30.5-24.8l-4.7-3.8C180.9,195,180.1,251.2,179,272.6z"/>
<path class="st5" d="M200.4,265.8l4.5,18v28.2l11.3,13.5c0,0,1.1-3.4,7.9-15.8s4.5-29.3,4.5-29.3s-1.1-33.8-1.1-45.1
	s-6.6-16.2-6.6-16.2l-7-0.7L200.4,265.8z"/>
<path class="st5" d="M159.8,226.4c2.3,20.3-18,113.9-21.4,121.8s-16.9-10.2-22.6-12.4s3.4-9,3.4-9h-3.4c-3.4,0,7.9-72.2,7.9-72.2
	l-15.8-39.5c5.6-16.9,44-27.1,44-27.1l11-4.6C164.9,185.5,157.5,206.1,159.8,226.4z"/>
<path class="st5" d="M167.7,157c3.9,0,2.8,6.8,2.8,6.8l16.9-12.4c0,0,7.9,9,14.7,9s6.1,8.5,6.1,8.5l6.3-8.5l-2.3-3.4h3.4l-3.4-3.4
	l3.4-1.1l-3.4-4.5c0,0-3.4-3.4-11.3-10.2s-16.9-1.1-16.9-1.1h-5.6v2.3C166,140.1,167.7,157,167.7,157z"/>
<path class="st4" d="M115.2,321.3l1.7,21.2c0,0,10.2,29.3-2.3,32.7s-12.4-31.6-12.4-31.6L100,320L115.2,321.3z"/>
<path class="st5" d="M127.1,236.5l-4.5,48.5l-4.5,38.3l-19.2,2.3l-3.4-16.9c-4.7-12-4.7-25.3,0-37.2c0,0,5.6-33.8,10.2-50.8
	s19.2-11.3,19.2-11.3L127.1,236.5z"/>
</svg>
