<?xml version="1.0" encoding="iso-8859-1"?>
<!-- Generator: Adobe Illustrator 19.0.0, SVG Export Plug-In . SVG Version: 6.00 Build 0)  -->
<svg version="1.1" id="Capa_1" xmlns="http://www.w3.org/2000/svg" xmlns:xlink="http://www.w3.org/1999/xlink" x="0px" y="0px"
	 viewBox="0 0 512 512" style="enable-background:new 0 0 512 512;" xml:space="preserve">
<circle style="fill:#488E53;" cx="256" cy="256" r="256"/>
<path style="fill:#3A7545;" d="M195.452,70.229l35.086,69.152c-62.115,28.96-109.029,154.366-109.029,203.113
	c0,21.505,9.133,41.425,24.671,57.74l-0.025,0.025l111.717,111.717c137.507-0.987,249.224-110.375,253.953-246.963L317.04,70.229
	H256H195.452z"/>
<g>
	<path style="fill:#F1CC37;" d="M390.984,342.494c0,55.278-60.324,100.091-134.738,100.091s-134.738-44.812-134.738-100.091
		S181.833,133.33,256.246,133.33S390.984,287.215,390.984,342.494z"/>
	<polygon style="fill:#F1CC37;" points="256.246,190.05 195.452,70.229 317.04,70.229 	"/>
</g>
<path style="fill:#DF871E;" d="M281.963,139.363l35.077-69.135H256v372.354c0.082,0,0.164,0.002,0.246,0.002
	c74.413,0,134.738-44.812,134.738-100.091C390.984,293.748,344.076,168.329,281.963,139.363z"/>
<path style="fill:#FFFFFF;" d="M295.912,245.043c-2.895-3.372-19.251-12.678-35.185-14.327v36.45l5.268,1.264
	c26.911,7.256,48.038,15.241,48.038,44.246c0,29.723-21.83,43.029-51.41,44.246v23.176h-12.641v-23.387
	c-20.417-1.462-39.537-8.676-54.148-18.962l12.852-25.072c6.448,6.465,26.141,16.021,43.192,17.909v-36.24
	c-1.264-0.28-2.528-0.596-3.793-0.948c-25.595-7.066-46.141-14.731-46.141-41.612c0-25.205,17.213-43.989,48.037-46.563v-21.491
	h12.641v21.281c17.301,1.314,33.038,7.389,46.142,16.434L295.912,245.043z M231.862,247.15c0,9.225,5.841,13.355,20.015,17.488
	v-34.133C238.532,231.348,231.862,236.898,231.862,247.15z M283.06,315.625c0-8.837-6.449-13.455-22.334-18.541v33.922
	C275.614,330.585,283.06,325.459,283.06,315.625z"/>
<path style="fill:#F9ED9D;" d="M265.994,268.43l-5.268-1.264v-36.45c15.833,1.639,32.259,10.918,35.185,14.327l12.853-23.597
	c-13.209-9.118-28.949-15.128-46.142-16.434V183.73H256v196.366h6.624V356.92c29.599-1.218,51.41-14.515,51.41-44.246
	C314.032,283.821,293.147,275.75,265.994,268.43z M260.727,331.006v-33.922c16.115,5.16,22.334,9.828,22.334,18.541
	C283.06,325.459,275.614,330.585,260.727,331.006z"/>
<g>
</g>
<g>
</g>
<g>
</g>
<g>
</g>
<g>
</g>
<g>
</g>
<g>
</g>
<g>
</g>
<g>
</g>
<g>
</g>
<g>
</g>
<g>
</g>
<g>
</g>
<g>
</g>
<g>
</g>
</svg>
