<svg width="1280" height="720" xmlns="http://www.w3.org/2000/svg" xmlns:xlink="http://www.w3.org/1999/xlink" overflow="hidden"><defs><clipPath id="clip0"><path d="M0 0 1280 0 1280 720 0 720Z" fill-rule="evenodd" clip-rule="evenodd"/></clipPath><clipPath id="clip1"><path d="M965 21 1275 21 1275 324 965 324Z" fill-rule="evenodd" clip-rule="evenodd"/></clipPath><clipPath id="clip2"><path d="M965 21 1275 21 1275 324 965 324Z" fill-rule="evenodd" clip-rule="evenodd"/></clipPath><clipPath id="clip3"><path d="M965 21 1275 21 1275 324 965 324Z" fill-rule="evenodd" clip-rule="evenodd"/></clipPath><clipPath id="clip4"><path d="M882 20 975 20 975 33 882 33Z" fill-rule="evenodd" clip-rule="evenodd"/></clipPath><clipPath id="clip5"><path d="M882 20 975 20 975 32 882 32Z" fill-rule="evenodd" clip-rule="evenodd"/></clipPath><clipPath id="clip6"><path d="M822 20 1084 20 1084 273 822 273Z" fill-rule="evenodd" clip-rule="evenodd"/></clipPath><clipPath id="clip7"><path d="M647 21 906 21 906 112 647 112Z" fill-rule="evenodd" clip-rule="evenodd"/></clipPath><clipPath id="clip8"><path d="M647 20 906 20 906 111 647 111Z" fill-rule="evenodd" clip-rule="evenodd"/></clipPath><clipPath id="clip9"><path d="M647 20 906 20 906 263 647 263Z" fill-rule="evenodd" clip-rule="evenodd"/></clipPath><clipPath id="clip10"><path d="M812 20 904 20 904 33 812 33Z" fill-rule="evenodd" clip-rule="evenodd"/></clipPath><clipPath id="clip11"><path d="M812 20 904 20 904 32 812 32Z" fill-rule="evenodd" clip-rule="evenodd"/></clipPath><clipPath id="clip12"><path d="M753 20 1012 20 1012 273 753 273Z" fill-rule="evenodd" clip-rule="evenodd"/></clipPath><clipPath id="clip13"><path d="M827 20 919 20 919 33 827 33Z" fill-rule="evenodd" clip-rule="evenodd"/></clipPath><clipPath id="clip14"><path d="M827 20 919 20 919 32 827 32Z" fill-rule="evenodd" clip-rule="evenodd"/></clipPath><clipPath id="clip15"><path d="M768 20 1027 20 1027 273 768 273Z" fill-rule="evenodd" clip-rule="evenodd"/></clipPath><clipPath id="clip16"><path d="M756 20 848 20 848 33 756 33Z" fill-rule="evenodd" clip-rule="evenodd"/></clipPath><clipPath id="clip17"><path d="M756 20 848 20 848 32 756 32Z" fill-rule="evenodd" clip-rule="evenodd"/></clipPath><clipPath id="clip18"><path d="M697 20 956 20 956 273 697 273Z" fill-rule="evenodd" clip-rule="evenodd"/></clipPath><clipPath id="clip19"><path d="M769.832 103.273 990.757 330.146 758.776 556.045 537.851 329.172Z" fill-rule="evenodd" clip-rule="evenodd"/></clipPath><clipPath id="clip20"><path d="M769.832 103.273 990.757 330.146 758.776 556.045 537.851 329.172Z" fill-rule="evenodd" clip-rule="evenodd"/></clipPath><clipPath id="clip21"><path d="M769.498 85.2626 999.588 321.547 758.776 556.045 528.687 319.761Z" fill-rule="evenodd" clip-rule="evenodd"/></clipPath><clipPath id="clip22"><path d="M516.473 143.618 734.101 367.106 504.75 590.444 287.122 366.956Z" fill-rule="evenodd" clip-rule="evenodd"/></clipPath><clipPath id="clip23"><path d="M516.473 143.618 734.101 367.106 504.75 590.444 287.122 366.956Z" fill-rule="evenodd" clip-rule="evenodd"/></clipPath><clipPath id="clip24"><path d="M516.143 125.674 745.416 361.12 505.456 594.788 276.183 359.343Z" fill-rule="evenodd" clip-rule="evenodd"/></clipPath><clipPath id="clip25"><path d="M5 396 315 396 315 699 5 699Z" fill-rule="evenodd" clip-rule="evenodd"/></clipPath><clipPath id="clip26"><path d="M5 396 315 396 315 699 5 699Z" fill-rule="evenodd" clip-rule="evenodd"/></clipPath><clipPath id="clip27"><path d="M5 396 315 396 315 699 5 699Z" fill-rule="evenodd" clip-rule="evenodd"/></clipPath><clipPath id="clip28"><path d="M300 664 392 664 392 675 300 675Z" fill-rule="evenodd" clip-rule="evenodd"/></clipPath><clipPath id="clip29"><path d="M300 664 392 664 392 675 300 675Z" fill-rule="evenodd" clip-rule="evenodd"/></clipPath><clipPath id="clip30"><path d="M192 423 451 423 451 675 192 675Z" fill-rule="evenodd" clip-rule="evenodd"/></clipPath><clipPath id="clip31"><path d="M368 585 627 585 627 675 368 675Z" fill-rule="evenodd" clip-rule="evenodd"/></clipPath><clipPath id="clip32"><path d="M368 585 627 585 627 675 368 675Z" fill-rule="evenodd" clip-rule="evenodd"/></clipPath><clipPath id="clip33"><path d="M368 433 627 433 627 675 368 675Z" fill-rule="evenodd" clip-rule="evenodd"/></clipPath><clipPath id="clip34"><path d="M370 664 463 664 463 675 370 675Z" fill-rule="evenodd" clip-rule="evenodd"/></clipPath><clipPath id="clip35"><path d="M370 664 464 664 464 675 370 675Z" fill-rule="evenodd" clip-rule="evenodd"/></clipPath><clipPath id="clip36"><path d="M261 423 523 423 523 675 261 675Z" fill-rule="evenodd" clip-rule="evenodd"/></clipPath><clipPath id="clip37"><path d="M355 664 448 664 448 675 355 675Z" fill-rule="evenodd" clip-rule="evenodd"/></clipPath><clipPath id="clip38"><path d="M355 664 448 664 448 675 355 675Z" fill-rule="evenodd" clip-rule="evenodd"/></clipPath><clipPath id="clip39"><path d="M246 423 508 423 508 675 246 675Z" fill-rule="evenodd" clip-rule="evenodd"/></clipPath><clipPath id="clip40"><path d="M426 664 518 664 518 675 426 675Z" fill-rule="evenodd" clip-rule="evenodd"/></clipPath><clipPath id="clip41"><path d="M426 664 518 664 518 675 426 675Z" fill-rule="evenodd" clip-rule="evenodd"/></clipPath><clipPath id="clip42"><path d="M318 423 577 423 577 675 318 675Z" fill-rule="evenodd" clip-rule="evenodd"/></clipPath></defs><g clip-path="url(#clip0)"><rect x="0" y="0" width="1280" height="720" fill="#FFFFFF"/><rect x="585" y="315" width="238" height="243" fill="#FFFFFF"/><g clip-path="url(#clip1)"><g clip-path="url(#clip2)"><g clip-path="url(#clip3)"><path d="M212.003 57.4401 212.003 116.434 97.0513 106.864 94.465 56.144 103.526 59.3991C118.914 65.0451 135.059 67.8681 151.204 67.8681 167.349 67.8681 183.494 65.0451 198.882 59.3991L208.091 56.144Z" fill="#FE646F" transform="matrix(1.0231 0 -0 1 965 21)"/><path d="M289.515 107.219C291.326 108.592 291.687 111.178 290.319 113.001L252.626 163.147C251.318 164.887 248.891 165.313 247.063 164.129L221.856 147.759 221.856 290.97C221.856 295.115 218.496 298.475 214.351 298.475L88.0567 298.475C83.9115 298.475 80.5517 295.114 80.5517 290.97L80.5517 147.759 55.3456 164.129C53.5169 165.313 51.0903 164.887 49.7824 163.147L12.0887 113.001C10.7216 111.178 11.0826 108.592 12.8936 107.219L73.5562 61.1154 90.9975 52.9895 97.2768 52.9895C98.6972 52.9895 100.011 53.7234 100.757 54.9307L114.179 76.5976C122.122 89.4167 136.125 97.217 151.204 97.217 158.744 97.217 166.012 95.264 172.392 91.713 178.772 88.162 184.258 83.0072 188.229 76.5976L201.652 54.9307C202.398 53.7234 203.712 52.9895 205.132 52.9895L212.003 52.9895 229.024 61.2456Z" fill="#FD8087" transform="matrix(1.0231 0 -0 1 965 21)"/><path d="M203.886 53.1919C202.971 53.4855 202.172 54.0892 201.652 54.9307L200.28 57.1465C201.555 55.909 202.76 54.5904 203.886 53.1919Z" fill="#FD8087" transform="matrix(1.0231 0 -0 1 965 21)"/><path d="M75.1583 61.3977 86.2474 61.3977C88.8692 61.3977 90.9945 59.2724 90.9945 56.6506L90.9945 31.2445C90.9945 28.6227 88.8692 26.4974 86.2474 26.4974L75.1583 26.4974C72.5365 26.4974 70.4112 28.6227 70.4112 31.2445L70.4112 56.6506C70.4112 59.2724 72.5365 61.3977 75.1583 61.3977Z" fill="#E5E1E5" transform="matrix(1.0231 0 -0 1 965 21)"/><path d="M227.842 61.3977 216.753 61.3977C214.131 61.3977 212.005 59.2724 212.005 56.6506L212.005 31.2445C212.005 28.6227 214.131 26.4974 216.753 26.4974L227.842 26.4974C230.463 26.4974 232.589 28.6227 232.589 31.2445L232.589 56.6506C232.589 59.2724 230.463 61.3977 227.842 61.3977Z" fill="#E5E1E5" transform="matrix(1.0231 0 -0 1 965 21)"/><path d="M234.688 214.733C230.23 216.879 226.849 220.237 224.489 224.752 223.245 227.131 219.824 227.142 218.693 224.706 216.408 219.781 212.868 216.52 208.348 214.535 205.905 213.462 205.785 210.016 208.128 208.739 212.9 206.137 216.412 202.675 218.664 198.333 219.877 195.995 223.174 195.998 224.43 198.313 226.95 202.959 230.435 206.488 234.826 208.966 237.123 210.263 237.064 213.589 234.688 214.733Z" fill="#FEE903" transform="matrix(1.0231 0 -0 1 965 21)"/><path d="M280.27 244.637C276.356 242.427 273.249 239.281 271.003 235.14 269.884 233.076 266.944 233.073 265.863 235.158 263.856 239.028 260.725 242.115 256.471 244.434 254.383 245.572 254.49 248.645 256.667 249.601 260.697 251.37 263.852 254.278 265.889 258.668 266.897 260.839 269.947 260.83 271.056 258.709 273.16 254.684 276.173 251.691 280.148 249.778 282.265 248.757 282.317 245.792 280.27 244.637Z" fill="#FEE903" transform="matrix(1.0231 0 -0 1 965 21)"/><path d="M52.8386 220.844C48.0211 218.124 44.1967 214.253 41.4323 209.156 40.0545 206.616 36.4372 206.613 35.1068 209.178 32.6359 213.943 28.7825 217.741 23.5466 220.595 20.9768 221.996 21.1088 225.777 23.788 226.955 28.747 229.133 32.6306 232.71 35.1382 238.113 36.378 240.786 40.132 240.775 41.4968 238.164 44.086 233.211 47.7956 229.527 52.6865 227.172 55.2941 225.916 55.358 222.267 52.8386 220.844Z" fill="#FEE903" transform="matrix(1.0231 0 -0 1 965 21)"/><path d="M119.135 286.31C108.24 286.31 99.4086 277.478 99.4086 266.583L99.4086 135.594 99.3074 130.942C99.3074 126.222 94.0744 123.381 90.1151 125.952L74.1013 136.352C72.2725 137.535 69.846 137.109 68.5381 135.369L34.8399 90.5394 12.893 107.219C11.082 108.592 10.721 111.178 12.0881 113.001L49.7818 163.147C51.0898 164.887 53.5163 165.313 55.345 164.129L80.5511 147.759 80.5511 290.97C80.5511 295.115 83.9115 298.475 88.0561 298.475L214.351 298.475C218.496 298.475 221.856 295.114 221.856 290.97L221.856 286.31Z" fill="#FE646F" transform="matrix(1.0231 0 -0 1 965 21)"/><path d="M80.5499 267.549C83.0013 267.549 84.9886 265.562 84.9886 263.111L84.9886 147.761C84.9886 146.134 84.0979 144.637 82.6681 143.86 81.2382 143.083 79.4976 143.153 78.1329 144.038L53.1606 160.254 33.7645 134.448C32.2915 132.489 29.5087 132.094 27.5497 133.567 25.5902 135.04 25.1954 137.822 26.6685 139.782L46.2332 165.811C48.9314 169.401 53.9951 170.298 57.7609 167.851L76.1118 155.935 76.1118 263.109C76.1112 265.562 78.0985 267.549 80.5499 267.549Z" transform="matrix(1.0231 0 -0 1 965 21)"/><path d="M221.858 239.84C219.407 239.84 217.42 241.828 217.42 244.279L217.42 294.035 84.9886 294.035 84.9886 282.027C84.9886 279.575 83.0013 277.588 80.5499 277.588 78.0985 277.588 76.1112 279.575 76.1112 282.027L76.1112 298.474C76.1112 300.925 78.0985 302.912 80.5499 302.912L221.858 302.912C224.31 302.912 226.297 300.925 226.297 298.474L226.297 244.279C226.297 241.828 224.31 239.84 221.858 239.84Z" transform="matrix(1.0231 0 -0 1 965 21)"/><path d="M292.201 103.683 263.449 81.8324C261.497 80.3493 258.712 80.728 257.229 82.6805 255.746 84.6323 256.125 87.4169 258.077 88.9L286.591 110.57 249.248 160.254 224.275 144.038C222.911 143.152 221.17 143.083 219.74 143.86 218.31 144.637 217.42 146.134 217.42 147.761L217.42 178.833C217.42 181.285 219.407 183.272 221.858 183.272 224.31 183.272 226.297 181.285 226.297 178.833L226.297 155.935 244.648 167.852C248.414 170.297 253.477 169.402 256.176 165.812L293.868 115.665C296.695 111.905 295.947 106.529 292.201 103.683Z" transform="matrix(1.0231 0 -0 1 965 21)"/><path d="M302.496 2.47444C301.362 0.301242 298.681-0.541525 296.508 0.591239 276.797 10.8719 255.953 19.0528 234.506 24.9409 232.83 23.1702 230.466 22.0581 227.842 22.0581L216.752 22.0581C211.743 22.0581 207.664 26.0903 207.574 31.0782 170.345 37.8499 132.654 37.8499 95.425 31.0782 95.335 26.0903 91.2567 22.0581 86.2474 22.0581L75.1583 22.0581C72.5341 22.0581 70.1698 23.1702 68.4943 24.9409 47.0476 19.0528 26.2033 10.8719 6.49179 0.591239 4.31799-0.542117 1.63759 0.301242 0.504239 2.47444-0.629708 4.64764 0.213651 7.32923 2.38744 8.46258 22.6032 19.0066 43.9795 27.3964 65.9731 33.4473L65.9731 56.6506C65.9731 58.0698 66.3063 59.4097 66.8833 60.6111L10.2073 103.683C6.4616 106.53 5.71412 111.905 8.5407 115.666L15.3024 124.662C16.1747 125.823 17.5058 126.434 18.8539 126.434 19.7819 126.434 20.7182 126.144 21.5172 125.543 23.4767 124.07 23.8715 121.288 22.3984 119.328L15.8161 110.571 74.7091 65.8139C74.8588 65.821 75.0068 65.837 75.1583 65.837L86.2474 65.837C91.049 65.837 94.9959 62.1315 95.3936 57.4312L97.0856 57.4312 110.407 78.936C119.219 93.1618 134.47 101.655 151.204 101.655 167.938 101.655 183.189 93.1618 192.001 78.936L205.322 57.4312 207.606 57.4312C208.004 62.1315 211.95 65.837 216.752 65.837L227.729 65.837 243.013 77.4517C243.815 78.0618 244.759 78.3566 245.695 78.3566 247.035 78.3566 248.359 77.7523 249.233 76.6036 250.716 74.6517 250.337 71.8671 248.385 70.384L235.959 60.9402C236.639 59.6589 237.027 58.2 237.027 56.6506L237.027 33.4538C259.021 27.4023 280.397 19.0072 300.613 8.46258 302.787 7.32923 303.63 4.64764 302.496 2.47444ZM86.5564 56.6506C86.5564 56.8205 86.4179 56.9589 86.248 56.9589L75.1589 56.9589C75.1193 56.9589 75.0826 56.9501 75.0476 56.9365 75.0429 56.9347 75.0382 56.9323 75.0328 56.9305 74.9257 56.882 74.85 56.7755 74.85 56.6506L74.85 31.2445C74.85 31.0741 74.9885 30.9362 75.1583 30.9362L86.2474 30.9362C86.4173 30.9362 86.5558 31.0746 86.5558 31.2445L86.5558 56.6506ZM184.454 74.2599C177.272 85.8539 164.842 92.7759 151.204 92.7759 137.566 92.7759 125.135 85.8539 117.954 74.2599L113.624 67.2704C125.917 70.6178 138.56 72.2956 151.204 72.2956 163.848 72.2956 176.49 70.619 188.783 67.271ZM205.13 48.5526C202.154 48.5526 199.443 50.0629 197.876 52.5924L195.928 55.738C167.024 65.969 135.385 65.969 106.481 55.7374L104.533 52.5924C102.966 50.0629 100.254 48.5526 97.2786 48.5526L95.4344 48.5526 95.4344 40.0924C114.05 43.3835 132.775 45.0359 151.501 45.0359 170.226 45.0359 188.951 43.3835 207.567 40.0924L207.567 48.5526ZM216.444 56.6506 216.444 31.2445C216.444 31.0741 216.582 30.9362 216.752 30.9362L227.841 30.9362C228.011 30.9362 228.149 31.0746 228.149 31.2445L228.149 56.6506C228.149 56.8205 228.011 56.9589 227.841 56.9589L216.752 56.9589C216.582 56.9589 216.444 56.8205 216.444 56.6506Z" transform="matrix(1.0231 0 -0 1 965 21)"/><path d="M237.009 205.101C233.278 202.995 230.439 200.082 228.332 196.197 226.972 193.689 224.374 192.14 221.538 192.14 221.514 192.14 221.49 192.14 221.466 192.14 218.621 192.166 216.038 193.756 214.724 196.289 212.876 199.853 210.023 202.65 206.004 204.841 203.414 206.253 201.884 208.966 202.009 211.921 202.134 214.862 203.88 217.42 206.563 218.599 210.284 220.234 212.935 222.842 214.667 226.575 215.894 229.218 218.466 230.903 221.379 230.972 221.442 230.973 221.504 230.974 221.566 230.974 224.458 230.974 227.072 229.39 228.422 226.808 230.364 223.093 233.043 220.451 236.613 218.733 239.191 217.491 240.851 214.946 240.944 212.088 241.039 209.203 239.531 206.525 237.009 205.101ZM221.652 220.77C219.373 216.787 216.207 213.677 212.207 211.489 216.145 209.002 219.281 205.892 221.565 202.208 223.986 206.088 227.101 209.284 230.858 211.744 227.099 213.935 224.014 216.96 221.652 220.77ZM232.763 210.734C232.762 210.734 232.76 210.734 232.759 210.735 232.76 210.735 232.762 210.734 232.763 210.734Z" transform="matrix(1.0231 0 -0 1 965 21)"/><path d="M282.453 240.771C279.208 238.94 276.739 236.405 274.905 233.023 273.608 230.632 271.13 229.154 268.425 229.154 268.403 229.154 268.379 229.154 268.357 229.154 265.642 229.18 263.177 230.697 261.923 233.114 260.322 236.203 257.843 238.631 254.347 240.536 251.876 241.883 250.416 244.472 250.536 247.292 250.656 250.097 252.321 252.539 254.882 253.664 258.088 255.072 260.371 257.32 261.863 260.536 263.034 263.06 265.49 264.668 268.272 264.734 268.332 264.735 268.391 264.736 268.451 264.736 271.209 264.736 273.703 263.227 274.989 260.765 276.671 257.547 278.988 255.262 282.073 253.776 284.534 252.591 286.117 250.161 286.207 247.435 286.296 244.682 284.858 242.129 282.453 240.771ZM268.542 254.241C266.641 251.163 264.128 248.692 261.033 246.858 264.071 244.827 266.553 242.366 268.448 239.505 270.44 242.522 272.913 245.062 275.837 247.09 272.928 248.911 270.487 251.304 268.542 254.241Z" transform="matrix(1.0231 0 -0 1 965 21)"/><path d="M55.0207 216.979C50.8542 214.627 47.6855 211.376 45.3342 207.04 43.9055 204.406 41.1713 202.794 38.1843 202.814 35.2234 202.842 32.5347 204.497 31.1664 207.135 29.0979 211.123 25.9103 214.251 21.4225 216.698 18.7273 218.166 17.1341 220.991 17.2655 224.069 17.3957 227.129 19.2114 229.792 22.0037 231.018 26.1867 232.855 29.1666 235.787 31.1125 239.981 32.3885 242.732 35.0642 244.485 38.0955 244.556 38.1606 244.558 38.2257 244.559 38.2908 244.559 41.3021 244.559 44.0251 242.91 45.4313 240.22 47.6062 236.058 50.6098 233.098 54.6129 231.171 57.2969 229.878 59.0238 227.229 59.1209 224.255 59.2185 221.25 57.6472 218.462 55.0207 216.979ZM38.3695 234.655C35.7661 229.824 32.0044 226.13 27.1544 223.642 31.9381 220.753 35.6726 217.049 38.2867 212.6 41.0843 217.282 44.7856 221.079 49.3202 223.915 44.7672 226.422 41.0937 230.025 38.3695 234.655Z" transform="matrix(1.0231 0 -0 1 965 21)"/></g></g></g><g clip-path="url(#clip4)"><g clip-path="url(#clip5)"><g clip-path="url(#clip6)"><path d="M-117.079-151.6C-87.5976-151.574-63.7045-127.681-63.6785-98.1996L-63.6785-65.5924-170.526-65.5924-170.526-98.1996C-170.5-127.699-146.579-151.6-117.079-151.6L-117.079-151.6Z" fill="#5E9641" transform="matrix(-1.03601 0 0 1 822.429 272.832)"/><path d="M-192.973-165.966-136.265-165.966C-130.06-165.983-124.564-161.962-122.702-156.042-152.479-153.128-175.2-128.119-175.252-98.1996L-175.252-65.5924C-175.252-62.9827-173.136-60.8668-170.526-60.8668L-153.703-60.8668-153.703-4.72568C-153.703-2.11592-151.587 0-148.977 0-146.367 0-144.251-2.11592-144.251-4.72568L-144.251-60.8668-89.9061-60.8668-89.9061-4.72568C-89.9061-2.11592-87.7901 0-85.1804 0-82.5706 0-80.4547-2.11592-80.4547-4.72568L-80.4547-60.8668-63.6785-60.8668C-61.0688-60.8668-58.9529-62.9827-58.9529-65.5924L-58.9529-98.1996C-58.993-128.629-82.4785-153.887-112.826-156.136-114.906-167.379-124.737-175.518-136.17-175.465L-192.879-175.465C-200.813-175.465-207.245-181.896-207.245-189.831-207.245-197.765-200.813-204.197-192.879-204.197L-58.8583-204.197C-45.7044-204.197-35.0409-214.86-35.0409-228.014-35.0409-241.168-45.7044-251.832-58.8583-251.832L-140.093-251.832C-142.703-251.832-144.818-249.716-144.818-247.106-144.818-244.496-142.703-242.38-140.093-242.38L-58.8583-242.38C-50.9239-242.38-44.4923-235.949-44.4923-228.014-44.4923-220.08-50.9239-213.648-58.8583-213.648L-192.973-213.648C-206.127-213.648-216.791-202.985-216.791-189.831-216.791-176.677-206.127-166.013-192.973-166.013L-192.973-165.966ZM-117.079-147.063C-90.2073-147.037-68.4302-125.26-68.4042-98.3887L-68.4042-70.5071-165.8-70.5071-165.8-98.3887C-165.671-125.205-143.895-146.875-117.079-146.874L-117.079-147.063Z" fill="#022400" transform="matrix(-1.03601 0 0 1 822.429 272.832)"/><path d="M-85.1804-90.0242-148.977-90.0242C-151.587-90.0242-153.703-87.9083-153.703-85.2985-153.703-82.6888-151.587-80.5728-148.977-80.5728L-85.1804-80.5728C-82.5706-80.5728-80.4547-82.6888-80.4547-85.2985-80.4547-87.9083-82.5706-90.0242-85.1804-90.0242L-85.1804-90.0242Z" fill="#022400" transform="matrix(-1.03601 0 0 1 822.429 272.832)"/><path d="M-153.703-108.596C-153.703-105.986-151.587-103.87-148.977-103.87L-85.1804-103.87C-82.5706-103.87-80.4547-105.986-80.4547-108.596-80.4547-111.206-82.5706-113.322-85.1804-113.322L-148.977-113.322C-151.587-113.322-153.703-111.206-153.703-108.596Z" fill="#022400" transform="matrix(-1.03601 0 0 1 822.429 272.832)"/></g></g></g><g clip-path="url(#clip7)"><g clip-path="url(#clip8)"><g clip-path="url(#clip9)"><path d="M-112.203-145.287C-83.95-145.262-61.0518-122.364-61.0269-94.1105L-61.0269-62.8611-163.425-62.8611-163.425-94.1105C-163.4-122.382-140.475-145.287-112.203-145.287L-112.203-145.287Z" fill="#5E9641" transform="matrix(-1.07315 0 0 1 647 262.345)"/><path d="M-184.938-159.055-130.591-159.055C-124.644-159.071-119.377-155.218-117.593-149.544-146.13-146.752-167.904-122.784-167.954-94.1105L-167.954-62.8611C-167.954-60.3601-165.926-58.3322-163.425-58.3322L-147.302-58.3322-147.302-4.5289C-147.302-2.02782-145.275 0-142.774 0-140.272 0-138.245-2.02782-138.245-4.5289L-138.245-58.3322-86.1623-58.3322-86.1623-4.5289C-86.1623-2.02782-84.1345 0-81.6334 0-79.1323 0-77.1045-2.02782-77.1045-4.5289L-77.1045-58.3322-61.0269-58.3322C-58.5258-58.3322-56.498-60.3601-56.498-62.8611L-56.498-94.1105C-56.5365-123.273-79.044-147.479-108.127-149.635-110.121-160.409-119.543-168.21-130.5-168.158L-184.847-168.158C-192.451-168.158-198.615-174.322-198.615-181.926-198.615-189.53-192.451-195.694-184.847-195.694L-56.4075-195.694C-43.8013-195.694-33.5818-205.913-33.5818-218.519-33.5818-231.126-43.8013-241.345-56.4075-241.345L-134.259-241.345C-136.76-241.345-138.788-239.317-138.788-236.816-138.788-234.315-136.76-232.287-134.259-232.287L-56.4075-232.287C-48.8034-232.287-42.6396-226.123-42.6396-218.519-42.6396-210.915-48.8034-204.752-56.4075-204.752L-184.938-204.752C-197.544-204.752-207.763-194.532-207.763-181.926-207.763-169.32-197.544-159.1-184.938-159.1L-184.938-159.055ZM-112.203-140.939C-86.451-140.914-65.5807-120.044-65.5558-94.2917L-65.5558-67.5712-158.896-67.5712-158.896-94.2917C-158.772-119.991-137.903-140.759-112.203-140.758L-112.203-140.939Z" fill="#022400" transform="matrix(-1.07315 0 0 1 647 262.345)"/><path d="M-81.6334-86.2755-142.774-86.2755C-145.275-86.2755-147.302-84.2477-147.302-81.7466-147.302-79.2456-145.275-77.2177-142.774-77.2177L-81.6334-77.2177C-79.1323-77.2177-77.1045-79.2456-77.1045-81.7466-77.1045-84.2477-79.1323-86.2755-81.6334-86.2755L-81.6334-86.2755Z" fill="#022400" transform="matrix(-1.07315 0 0 1 647 262.345)"/><path d="M-147.302-104.074C-147.302-101.573-145.275-99.5452-142.774-99.5452L-81.6334-99.5452C-79.1323-99.5452-77.1045-101.573-77.1045-104.074-77.1045-106.575-79.1323-108.603-81.6334-108.603L-142.774-108.603C-145.275-108.603-147.302-106.575-147.302-104.074Z" fill="#022400" transform="matrix(-1.07315 0 0 1 647 262.345)"/></g></g></g><g clip-path="url(#clip10)"><g clip-path="url(#clip11)"><g clip-path="url(#clip12)"><path d="M-117.079-151.6C-87.5976-151.574-63.7045-127.681-63.6785-98.1996L-63.6785-65.5924-170.526-65.5924-170.526-98.1996C-170.5-127.699-146.579-151.6-117.079-151.6L-117.079-151.6Z" fill="#5E9641" transform="matrix(-1.02487 0 0 1 753.07 272.832)"/><path d="M-192.973-165.966-136.265-165.966C-130.06-165.983-124.564-161.962-122.702-156.042-152.479-153.128-175.2-128.119-175.252-98.1996L-175.252-65.5924C-175.252-62.9827-173.136-60.8668-170.526-60.8668L-153.703-60.8668-153.703-4.72568C-153.703-2.11592-151.587 0-148.977 0-146.367 0-144.251-2.11592-144.251-4.72568L-144.251-60.8668-89.9061-60.8668-89.9061-4.72568C-89.9061-2.11592-87.7901 0-85.1804 0-82.5706 0-80.4547-2.11592-80.4547-4.72568L-80.4547-60.8668-63.6785-60.8668C-61.0688-60.8668-58.9529-62.9827-58.9529-65.5924L-58.9529-98.1996C-58.993-128.629-82.4785-153.887-112.826-156.136-114.906-167.379-124.737-175.518-136.17-175.465L-192.879-175.465C-200.813-175.465-207.245-181.896-207.245-189.831-207.245-197.765-200.813-204.197-192.879-204.197L-58.8583-204.197C-45.7044-204.197-35.0409-214.86-35.0409-228.014-35.0409-241.168-45.7044-251.832-58.8583-251.832L-140.093-251.832C-142.703-251.832-144.818-249.716-144.818-247.106-144.818-244.496-142.703-242.38-140.093-242.38L-58.8583-242.38C-50.9239-242.38-44.4923-235.949-44.4923-228.014-44.4923-220.08-50.9239-213.648-58.8583-213.648L-192.973-213.648C-206.127-213.648-216.791-202.985-216.791-189.831-216.791-176.677-206.127-166.013-192.973-166.013L-192.973-165.966ZM-117.079-147.063C-90.2073-147.037-68.4302-125.26-68.4042-98.3887L-68.4042-70.5071-165.8-70.5071-165.8-98.3887C-165.671-125.205-143.895-146.875-117.079-146.874L-117.079-147.063Z" fill="#022400" transform="matrix(-1.02487 0 0 1 753.07 272.832)"/><path d="M-85.1804-90.0242-148.977-90.0242C-151.587-90.0242-153.703-87.9083-153.703-85.2985-153.703-82.6888-151.587-80.5728-148.977-80.5728L-85.1804-80.5728C-82.5706-80.5728-80.4547-82.6888-80.4547-85.2985-80.4547-87.9083-82.5706-90.0242-85.1804-90.0242L-85.1804-90.0242Z" fill="#022400" transform="matrix(-1.02487 0 0 1 753.07 272.832)"/><path d="M-153.703-108.596C-153.703-105.986-151.587-103.87-148.977-103.87L-85.1804-103.87C-82.5706-103.87-80.4547-105.986-80.4547-108.596-80.4547-111.206-82.5706-113.322-85.1804-113.322L-148.977-113.322C-151.587-113.322-153.703-111.206-153.703-108.596Z" fill="#022400" transform="matrix(-1.02487 0 0 1 753.07 272.832)"/></g></g></g><g clip-path="url(#clip13)"><g clip-path="url(#clip14)"><g clip-path="url(#clip15)"><path d="M-117.079-151.6C-87.5976-151.574-63.7045-127.681-63.6785-98.1996L-63.6785-65.5924-170.526-65.5924-170.526-98.1996C-170.5-127.699-146.579-151.6-117.079-151.6L-117.079-151.6Z" fill="#5E9641" transform="matrix(-1.02487 0 0 1 768.07 272.832)"/><path d="M-192.973-165.966-136.265-165.966C-130.06-165.983-124.564-161.962-122.702-156.042-152.479-153.128-175.2-128.119-175.252-98.1996L-175.252-65.5924C-175.252-62.9827-173.136-60.8668-170.526-60.8668L-153.703-60.8668-153.703-4.72568C-153.703-2.11592-151.587 0-148.977 0-146.367 0-144.251-2.11592-144.251-4.72568L-144.251-60.8668-89.9061-60.8668-89.9061-4.72568C-89.9061-2.11592-87.7901 0-85.1804 0-82.5706 0-80.4547-2.11592-80.4547-4.72568L-80.4547-60.8668-63.6785-60.8668C-61.0688-60.8668-58.9529-62.9827-58.9529-65.5924L-58.9529-98.1996C-58.993-128.629-82.4785-153.887-112.826-156.136-114.906-167.379-124.737-175.518-136.17-175.465L-192.879-175.465C-200.813-175.465-207.245-181.896-207.245-189.831-207.245-197.765-200.813-204.197-192.879-204.197L-58.8583-204.197C-45.7044-204.197-35.0409-214.86-35.0409-228.014-35.0409-241.168-45.7044-251.832-58.8583-251.832L-140.093-251.832C-142.703-251.832-144.818-249.716-144.818-247.106-144.818-244.496-142.703-242.38-140.093-242.38L-58.8583-242.38C-50.9239-242.38-44.4923-235.949-44.4923-228.014-44.4923-220.08-50.9239-213.648-58.8583-213.648L-192.973-213.648C-206.127-213.648-216.791-202.985-216.791-189.831-216.791-176.677-206.127-166.013-192.973-166.013L-192.973-165.966ZM-117.079-147.063C-90.2073-147.037-68.4302-125.26-68.4042-98.3887L-68.4042-70.5071-165.8-70.5071-165.8-98.3887C-165.671-125.205-143.895-146.875-117.079-146.874L-117.079-147.063Z" fill="#022400" transform="matrix(-1.02487 0 0 1 768.07 272.832)"/><path d="M-85.1804-90.0242-148.977-90.0242C-151.587-90.0242-153.703-87.9083-153.703-85.2985-153.703-82.6888-151.587-80.5728-148.977-80.5728L-85.1804-80.5728C-82.5706-80.5728-80.4547-82.6888-80.4547-85.2985-80.4547-87.9083-82.5706-90.0242-85.1804-90.0242L-85.1804-90.0242Z" fill="#022400" transform="matrix(-1.02487 0 0 1 768.07 272.832)"/><path d="M-153.703-108.596C-153.703-105.986-151.587-103.87-148.977-103.87L-85.1804-103.87C-82.5706-103.87-80.4547-105.986-80.4547-108.596-80.4547-111.206-82.5706-113.322-85.1804-113.322L-148.977-113.322C-151.587-113.322-153.703-111.206-153.703-108.596Z" fill="#022400" transform="matrix(-1.02487 0 0 1 768.07 272.832)"/></g></g></g><g clip-path="url(#clip16)"><g clip-path="url(#clip17)"><g clip-path="url(#clip18)"><path d="M-117.079-151.6C-87.5976-151.574-63.7045-127.681-63.6785-98.1996L-63.6785-65.5924-170.526-65.5924-170.526-98.1996C-170.5-127.699-146.579-151.6-117.079-151.6L-117.079-151.6Z" fill="#5E9641" transform="matrix(-1.02487 0 0 1 697.07 272.832)"/><path d="M-192.973-165.966-136.265-165.966C-130.06-165.983-124.564-161.962-122.702-156.042-152.479-153.128-175.2-128.119-175.252-98.1996L-175.252-65.5924C-175.252-62.9827-173.136-60.8668-170.526-60.8668L-153.703-60.8668-153.703-4.72568C-153.703-2.11592-151.587 0-148.977 0-146.367 0-144.251-2.11592-144.251-4.72568L-144.251-60.8668-89.9061-60.8668-89.9061-4.72568C-89.9061-2.11592-87.7901 0-85.1804 0-82.5706 0-80.4547-2.11592-80.4547-4.72568L-80.4547-60.8668-63.6785-60.8668C-61.0688-60.8668-58.9529-62.9827-58.9529-65.5924L-58.9529-98.1996C-58.993-128.629-82.4785-153.887-112.826-156.136-114.906-167.379-124.737-175.518-136.17-175.465L-192.879-175.465C-200.813-175.465-207.245-181.896-207.245-189.831-207.245-197.765-200.813-204.197-192.879-204.197L-58.8583-204.197C-45.7044-204.197-35.0409-214.86-35.0409-228.014-35.0409-241.168-45.7044-251.832-58.8583-251.832L-140.093-251.832C-142.703-251.832-144.818-249.716-144.818-247.106-144.818-244.496-142.703-242.38-140.093-242.38L-58.8583-242.38C-50.9239-242.38-44.4923-235.949-44.4923-228.014-44.4923-220.08-50.9239-213.648-58.8583-213.648L-192.973-213.648C-206.127-213.648-216.791-202.985-216.791-189.831-216.791-176.677-206.127-166.013-192.973-166.013L-192.973-165.966ZM-117.079-147.063C-90.2073-147.037-68.4302-125.26-68.4042-98.3887L-68.4042-70.5071-165.8-70.5071-165.8-98.3887C-165.671-125.205-143.895-146.875-117.079-146.874L-117.079-147.063Z" fill="#022400" transform="matrix(-1.02487 0 0 1 697.07 272.832)"/><path d="M-85.1804-90.0242-148.977-90.0242C-151.587-90.0242-153.703-87.9083-153.703-85.2985-153.703-82.6888-151.587-80.5728-148.977-80.5728L-85.1804-80.5728C-82.5706-80.5728-80.4547-82.6888-80.4547-85.2985-80.4547-87.9083-82.5706-90.0242-85.1804-90.0242L-85.1804-90.0242Z" fill="#022400" transform="matrix(-1.02487 0 0 1 697.07 272.832)"/><path d="M-153.703-108.596C-153.703-105.986-151.587-103.87-148.977-103.87L-85.1804-103.87C-82.5706-103.87-80.4547-105.986-80.4547-108.596-80.4547-111.206-82.5706-113.322-85.1804-113.322L-148.977-113.322C-151.587-113.322-153.703-111.206-153.703-108.596Z" fill="#022400" transform="matrix(-1.02487 0 0 1 697.07 272.832)"/></g></g></g><g clip-path="url(#clip19)"><g clip-path="url(#clip20)"><g clip-path="url(#clip21)"><path d="M169.077 148.063 134.87 113.856 150.981 97.7453 185.188 131.952C189.636 136.401 189.636 143.615 185.188 148.063L185.188 148.063C180.739 152.512 173.526 152.512 169.077 148.063Z" fill="#BCBCBC" transform="matrix(0.697653 0.716436 -0.730162 0.71102 769.498 85.2626)"/><path d="M148.062 185.19C145.839 187.413 142.925 188.525 140.011 188.525 137.092 188.529 134.178 187.418 131.95 185.19L97.7414 150.981 113.853 134.87 148.062 169.078C151.135 172.152 152.083 176.536 150.92 180.417 150.396 182.164 149.444 183.808 148.062 185.19Z" fill="#BCBCBC" transform="matrix(0.697653 0.716436 -0.730162 0.71102 769.498 85.2626)"/><path d="M150.92 180.417C149.851 180.739 148.748 180.897 147.637 180.897 144.722 180.897 141.808 179.785 139.58 177.558L105.371 143.349 113.852 134.868 148.061 169.077C151.135 172.15 152.083 176.536 150.92 180.417Z" fill="#D8D8D8" transform="matrix(0.697653 0.716436 -0.730162 0.71102 769.498 85.2626)"/><path d="M188.047 143.291C186.977 143.613 185.875 143.771 184.763 143.771 181.849 143.771 178.935 142.659 176.707 140.432L142.498 106.223 150.979 97.742 185.188 131.951C188.261 135.024 189.209 139.41 188.047 143.291Z" fill="#D8D8D8" transform="matrix(0.697653 0.716436 -0.730162 0.71102 769.498 85.2626)"/><path d="M33.111 56.956 125.382 56.956 125.382 101.554 33.111 101.554Z" fill="#D8D8D8" transform="matrix(-0.0148071 0.650175 -0.650339 -0.00246695 820.551 106.804)"/><path d="M25.23 75.983 117.501 75.983 117.501 98.282 25.23 98.282Z" fill="#BCBCBC" transform="matrix(-0.0148071 0.650175 -0.650339 -0.00246695 818.311 111.918)"/><path d="M150.784 81.9301 73.359 142.216 40.5937 109.451C29.6753 98.5324 29.6753 80.8228 40.5937 69.9044L69.9032 40.595C80.8267 29.6715 98.5311 29.6766 109.449 40.595L150.784 81.9301Z" fill="#239999" transform="matrix(0.697653 0.716436 -0.730162 0.71102 769.498 85.2626)"/><path d="M160.25 93.1422 93.1415 160.252C87.92 165.473 79.4585 165.473 74.2325 160.247 69.0117 155.026 69.0117 146.564 74.2325 141.343L141.341 74.2338C146.562 69.0129 155.029 69.0078 160.25 74.2293 162.861 76.84 164.169 80.2675 164.169 83.686 164.169 87.1129 162.861 90.5314 160.25 93.1422Z" fill="#239999" transform="matrix(0.697653 0.716436 -0.730162 0.71102 769.498 85.2626)"/><path d="M160.25 93.1422 110.813 142.579C105.592 147.8 97.1256 147.805 91.899 142.579 86.6781 137.359 86.6826 128.892 91.9035 123.67L141.341 74.2331C146.562 69.0123 155.028 69.0071 160.25 74.2286 162.86 76.8394 164.168 80.2669 164.168 83.6854 164.169 87.1129 162.861 90.5314 160.25 93.1422Z" fill="#45B8C4" transform="matrix(0.697653 0.716436 -0.730162 0.71102 769.498 85.2626)"/><path d="M142.215 73.3597 92.2732 123.301 59.5079 90.5359C48.5895 79.6176 48.5844 61.9125 59.5079 50.9896L69.9032 40.5943C80.8267 29.6708 98.5311 29.676 109.449 40.5943L142.215 73.3597Z" fill="#45B8C4" transform="matrix(0.697653 0.716436 -0.730162 0.71102 769.498 85.2626)"/><path d="M394.568 409.53 469.086 409.53 469.086 454.128 394.568 454.128Z" fill="#D8D8D8" transform="matrix(-0.0148071 0.650175 -0.650339 -0.00246695 1047.69 202.626)"/><path d="M386.675 428.568 461.193 428.568 461.193 450.867 386.675 450.867Z" fill="#BCBCBC" transform="matrix(-0.0148071 0.650175 -0.650339 -0.00246695 1045.44 207.747)"/><path d="M290.21 249.618 249.622 290.206C235.673 304.155 213.064 304.151 199.12 290.206L150.205 241.292 250.696 159.603 290.21 199.116C304.155 213.061 304.155 235.673 290.21 249.618Z" fill="#D8A32E" transform="matrix(0.697653 0.716436 -0.730162 0.71102 769.498 85.2626)"/><path d="M252.588 157.711 157.71 252.588C152.489 257.809 144.023 257.814 138.801 252.592 133.575 247.366 133.58 238.9 138.801 233.678L233.678 138.801C236.294 136.186 239.712 134.879 243.135 134.883 246.554 134.883 249.981 136.191 252.592 138.801 257.813 144.023 257.813 152.485 252.588 157.711Z" fill="#D8A32E" transform="matrix(0.697653 0.716436 -0.730162 0.71102 769.498 85.2626)"/><path d="M252.588 157.711 179.594 230.704C174.373 235.925 165.907 235.93 160.685 230.709 155.459 225.483 155.464 217.016 160.685 211.795L233.678 138.801C236.294 136.186 239.712 134.879 243.135 134.883 246.554 134.883 249.981 136.191 252.592 138.801 257.813 144.023 257.813 152.485 252.588 157.711Z" fill="#FCC63D" transform="matrix(0.697653 0.716436 -0.730162 0.71102 769.498 85.2626)"/><path d="M290.21 249.618 266.429 273.399C252.485 287.343 229.877 287.339 215.932 273.394L176.419 233.881 250.696 159.603 290.21 199.116C304.155 213.061 304.155 235.673 290.21 249.618Z" fill="#FCC63D" transform="matrix(0.697653 0.716436 -0.730162 0.71102 769.498 85.2626)"/><path d="M169.122 83.688C169.122 78.7924 167.216 74.1906 163.754 70.7283 156.609 63.5828 144.983 63.5828 137.836 70.7283L130.756 77.8082C128.822 79.7426 128.822 82.8789 130.756 84.8127 132.69 86.747 135.827 86.747 137.76 84.8127L144.84 77.7328C148.124 74.4496 153.466 74.4502 156.748 77.7328 158.339 79.3232 159.214 81.438 159.214 83.6867 159.214 85.9354 158.338 88.0502 156.748 89.6406L89.6431 156.748C88.0527 158.339 85.9386 159.214 83.6893 159.214 81.4399 159.214 79.3258 158.338 77.7354 156.748 76.145 155.158 75.2696 153.043 75.2696 150.794 75.2696 148.546 76.1456 146.431 77.7354 144.84L128.185 94.3905C130.12 92.4561 130.12 89.3198 128.185 87.386 126.251 85.4517 123.114 85.4517 121.181 87.386L70.7302 137.836C63.5847 144.981 63.5847 156.608 70.7302 163.754 74.1919 167.216 78.7937 169.122 83.6899 169.122 88.5854 169.122 93.1873 167.216 96.6483 163.754L163.755 96.6476C167.216 93.186 169.122 88.5835 169.122 83.688Z" transform="matrix(0.697653 0.716436 -0.730162 0.71102 769.498 85.2626)"/><path d="M65.1835 127.035 44.0972 105.949C35.1255 96.9774 35.1255 82.3791 44.0972 73.4073L73.408 44.0972C77.7547 39.7505 83.5327 37.3575 89.6786 37.3575 95.8244 37.3575 101.603 39.7511 105.949 44.0972L127.036 65.1835C128.97 67.1179 132.107 67.1179 134.041 65.1835 135.975 63.2491 135.975 60.1127 134.041 58.179L112.954 37.0927C106.737 30.8754 98.4706 27.4517 89.6779 27.4517 80.8853 27.4517 72.6189 30.876 66.4016 37.0927L65.4057 38.0886 43.6914 16.3724C42.7625 15.4429 41.5026 14.9211 40.1892 14.9211 38.8757 14.9211 37.6151 15.4429 36.6869 16.3724L30.0322 23.0271 8.45576 1.45063C6.52137-0.483757 3.38501-0.483757 1.45127 1.45063-0.483113 3.38501-0.483113 6.52137 1.45127 8.45511L23.0277 30.0316 16.3736 36.6863C14.4393 38.6207 14.4393 41.757 16.3736 43.6908L38.0879 65.4051 37.0921 66.4009C24.2574 79.2356 24.2574 100.119 37.0921 112.953L58.1783 134.039C59.1452 135.006 60.4135 135.491 61.6806 135.491 62.9476 135.491 64.216 135.007 65.1828 134.039 67.1179 132.106 67.1179 128.969 65.1835 127.035ZM45.0931 58.4006 26.8804 40.1892 40.1892 26.8804 58.4019 45.0931 51.7471 51.7471 45.0931 58.4006Z" transform="matrix(0.697653 0.716436 -0.730162 0.71102 769.498 85.2626)"/><path d="M261.462 148.255C261.462 143.359 259.556 138.758 256.094 135.297 252.632 131.835 248.031 129.929 243.134 129.929 238.239 129.929 233.637 131.835 230.176 135.297L135.297 230.175C131.835 233.637 129.929 238.239 129.929 243.134 129.929 248.03 131.835 252.632 135.297 256.093 138.758 259.556 143.36 261.461 148.256 261.461 153.152 261.461 157.754 259.555 161.215 256.093L256.094 161.215C259.556 157.752 261.462 153.15 261.462 148.255ZM249.089 154.209 154.21 249.088C150.926 252.37 145.585 252.371 142.302 249.088 139.019 245.804 139.019 240.463 142.302 237.18L237.181 142.301C238.772 140.711 240.886 139.835 243.135 139.835 245.384 139.835 247.499 140.711 249.089 142.301 250.679 143.892 251.555 146.006 251.555 148.255 251.555 150.504 250.679 152.618 249.089 154.209Z" transform="matrix(0.697653 0.716436 -0.730162 0.71102 769.498 85.2626)"/><path d="M258.87 174.785 286.705 202.62C291.064 206.979 293.984 212.466 295.15 218.489 295.609 220.857 297.682 222.502 300.008 222.502 300.32 222.502 300.637 222.473 300.955 222.411 303.64 221.892 305.396 219.293 304.876 216.607 303.333 208.636 299.472 201.377 293.71 195.616L265.875 167.781C263.94 165.847 260.804 165.847 258.87 167.781 256.935 169.714 256.935 172.851 258.87 174.785Z" transform="matrix(0.697653 0.716436 -0.730162 0.71102 769.498 85.2626)"/><path d="M161.49 108.253C159.556 110.188 159.556 113.324 161.49 115.258L181.686 135.454C184.197 137.964 184.197 142.049 181.686 144.56 179.175 147.071 175.091 147.07 172.58 144.56L152.384 124.364C150.45 122.43 147.313 122.43 145.38 124.364 143.445 126.299 143.445 129.435 145.38 131.369L165.576 151.565C168.762 154.751 172.948 156.344 177.134 156.344 181.319 156.344 185.505 154.751 188.692 151.565 195.065 145.192 195.065 134.822 188.692 128.449L168.495 108.253C166.561 106.319 163.424 106.319 161.49 108.253Z" transform="matrix(0.697653 0.716436 -0.730162 0.71102 769.498 85.2626)"/><path d="M151.565 188.69C154.653 185.603 156.353 181.498 156.353 177.132 156.353 172.767 154.653 168.661 151.565 165.574L131.369 145.378C129.436 143.444 126.299 143.444 124.365 145.378 122.43 147.313 122.43 150.449 124.365 152.383L144.561 172.579C145.777 173.796 146.446 175.412 146.446 177.132 146.446 178.851 145.776 180.468 144.561 181.684 142.05 184.195 137.965 184.195 135.454 181.684L115.258 161.488C113.324 159.554 110.188 159.554 108.254 161.488 106.32 163.423 106.32 166.559 108.254 168.493L128.45 188.689C131.637 191.876 135.822 193.469 140.008 193.469 144.193 193.47 148.379 191.876 151.565 188.69Z" transform="matrix(0.697653 0.716436 -0.730162 0.71102 769.498 85.2626)"/><path d="M328.354 321.349 302.135 295.13 308.79 288.475C310.724 286.541 310.724 283.405 308.79 281.471L287.075 259.757 293.71 253.122C298.496 248.336 302.036 242.395 303.945 235.942 304.722 233.318 303.224 230.563 300.602 229.786 297.977 229.01 295.222 230.508 294.446 233.13 293.004 238.004 290.327 242.495 286.705 246.117L246.117 286.706C240.307 292.515 232.585 295.714 224.369 295.714 216.154 295.714 208.43 292.515 202.621 286.706L174.786 258.871C172.852 256.937 169.715 256.937 167.782 258.871 165.847 260.805 165.847 263.942 167.782 265.875L195.617 293.711C203.296 301.391 213.509 305.62 224.37 305.62 235.231 305.62 245.443 301.391 253.124 293.711L259.759 287.076 281.474 308.791C282.402 309.72 283.662 310.242 284.976 310.242 286.289 310.242 287.55 309.72 288.478 308.791L295.132 302.136 321.351 328.355C322.318 329.322 323.586 329.806 324.853 329.806 326.12 329.806 327.389 329.322 328.355 328.355 330.289 326.419 330.289 323.283 328.354 321.349ZM284.974 298.282 266.761 280.069 273.416 273.415 280.071 266.761 298.283 284.973 291.63 291.625C291.629 291.626 291.629 291.626 291.628 291.627 291.627 291.627 291.627 291.628 291.627 291.628L284.974 298.282Z" transform="matrix(0.697653 0.716436 -0.730162 0.71102 769.498 85.2626)"/></g></g></g><rect x="550" y="332" width="347" height="40" fill="#FFFFFF"/><rect x="627" y="343" width="365" height="232" fill="#FFFFFF"/><g clip-path="url(#clip22)"><g clip-path="url(#clip23)"><g clip-path="url(#clip24)"><path d="M168.477 147.537 134.391 113.452 150.445 97.3983 184.531 131.484C188.963 135.917 188.963 143.105 184.531 147.537L184.531 147.537C180.098 151.97 172.91 151.97 168.477 147.537Z" fill="#BCBCBC" transform="matrix(0.697653 0.716436 -0.730171 0.711028 516.143 125.674)"/><path d="M147.536 184.533C145.321 186.748 142.417 187.855 139.514 187.855 136.605 187.86 133.702 186.753 131.482 184.533L97.3944 150.445 113.449 134.391 147.536 168.478C150.599 171.541 151.543 175.91 150.385 179.776 149.862 181.517 148.914 183.155 147.536 184.533Z" fill="#BCBCBC" transform="matrix(0.697653 0.716436 -0.730171 0.711028 516.143 125.674)"/><path d="M150.384 179.776C149.319 180.097 148.22 180.255 147.113 180.255 144.209 180.255 141.305 179.147 139.085 176.928L104.997 142.84 113.448 134.39 147.536 168.477C150.599 171.539 151.543 175.909 150.384 179.776Z" fill="#D8D8D8" transform="matrix(0.697653 0.716436 -0.730171 0.711028 516.143 125.674)"/><path d="M187.379 142.782C186.314 143.103 185.215 143.261 184.108 143.261 181.204 143.261 178.3 142.153 176.08 139.933L141.992 105.846 150.443 97.3951 184.531 131.483C187.593 134.545 188.538 138.915 187.379 142.782Z" fill="#D8D8D8" transform="matrix(0.697653 0.716436 -0.730171 0.711028 516.143 125.674)"/><path d="M33.111 56.956 125.382 56.956 125.382 101.554 33.111 101.554Z" fill="#D8D8D8" transform="matrix(-0.0147586 0.647871 -0.648035 -0.0024542 567.015 147.139)"/><path d="M25.23 75.983 117.501 75.983 117.501 98.282 25.23 98.282Z" fill="#BCBCBC" transform="matrix(-0.0147586 0.647871 -0.648035 -0.0024542 564.782 152.235)"/><path d="M150.249 81.6393 73.0986 141.711 40.4496 109.062C29.57 98.1827 29.57 80.5359 40.4496 69.6563L69.655 40.4509C80.5397 29.5662 98.1814 29.5713 109.061 40.4509L150.249 81.6393Z" fill="#239999" transform="matrix(0.697653 0.716436 -0.730171 0.711028 516.143 125.674)"/><path d="M159.682 92.8115 92.8109 159.683C87.608 164.886 79.1764 164.886 73.969 159.678 68.7667 154.476 68.7667 146.044 73.969 140.841L140.84 73.9703C146.042 68.768 154.479 68.7628 159.682 73.9658 162.283 76.5673 163.586 79.9826 163.586 83.389 163.586 86.8037 162.283 90.2101 159.682 92.8115Z" fill="#239999" transform="matrix(0.697653 0.716436 -0.730171 0.711028 516.143 125.674)"/><path d="M159.682 92.8115 110.42 142.073C105.217 147.276 96.7808 147.281 91.5727 142.073 86.3704 136.871 86.3749 128.434 91.5772 123.231L140.839 73.9696C146.041 68.7673 154.478 68.7622 159.681 73.9651 162.282 76.5666 163.585 79.982 163.585 83.3883 163.586 86.8037 162.283 90.2101 159.682 92.8115Z" fill="#45B8C4" transform="matrix(0.697653 0.716436 -0.730171 0.711028 516.143 125.674)"/><path d="M141.71 73.0993 91.9457 122.864 59.2966 90.2146C48.417 79.335 48.4119 61.6927 59.2966 50.8086L69.655 40.4502C80.5397 29.5655 98.1814 29.5707 109.061 40.4502L141.71 73.0993Z" fill="#45B8C4" transform="matrix(0.697653 0.716436 -0.730171 0.711028 516.143 125.674)"/><path d="M394.568 409.53 469.086 409.53 469.086 454.128 394.568 454.128Z" fill="#D8D8D8" transform="matrix(-0.0147586 0.647871 -0.648035 -0.0024542 793.345 242.62)"/><path d="M386.675 428.568 461.193 428.568 461.193 450.867 386.675 450.867Z" fill="#BCBCBC" transform="matrix(-0.0147586 0.647871 -0.648035 -0.0024542 791.108 247.723)"/><path d="M289.179 248.732 248.736 289.176C234.836 303.076 212.308 303.071 198.413 289.176L149.672 240.436 249.806 159.036 289.179 198.41C303.075 212.305 303.075 234.837 289.179 248.732Z" fill="#D8A32E" transform="matrix(0.697653 0.716436 -0.730171 0.711028 516.143 125.674)"/><path d="M251.691 157.151 157.151 251.691C151.948 256.894 143.512 256.899 138.309 251.696 133.101 246.488 133.106 238.052 138.309 232.849L232.849 138.309C235.455 135.703 238.861 134.4 242.272 134.404 245.678 134.404 249.094 135.707 251.695 138.309 256.898 143.512 256.898 151.944 251.691 157.151Z" fill="#D8A32E" transform="matrix(0.697653 0.716436 -0.730171 0.711028 516.143 125.674)"/><path d="M251.691 157.151 178.957 229.885C173.754 235.088 165.318 235.093 160.115 229.89 154.907 224.682 154.912 216.246 160.115 211.043L232.849 138.309C235.455 135.703 238.861 134.4 242.272 134.404 245.678 134.404 249.094 135.707 251.695 138.309 256.898 143.512 256.898 151.944 251.691 157.151Z" fill="#FCC63D" transform="matrix(0.697653 0.716436 -0.730171 0.711028 516.143 125.674)"/><path d="M289.179 248.732 265.484 272.428C251.589 286.323 229.061 286.319 215.165 272.424L175.792 233.05 249.806 159.036 289.179 198.41C303.075 212.305 303.075 234.837 289.179 248.732Z" fill="#FCC63D" transform="matrix(0.697653 0.716436 -0.730171 0.711028 516.143 125.674)"/><path d="M168.521 83.3909C168.521 78.5127 166.622 73.9273 163.173 70.4773 156.053 63.3571 144.468 63.3571 137.347 70.4773L130.292 77.532C128.364 79.4595 128.364 82.5847 130.292 84.5116 132.219 86.4391 135.345 86.4391 137.271 84.5116L144.326 77.4569C147.598 74.1853 152.921 74.1859 156.192 77.4569 157.776 79.0416 158.649 81.1489 158.649 83.3896 158.649 85.6304 157.776 87.7376 156.192 89.3224L89.3249 156.192C87.7402 157.776 85.6336 158.649 83.3922 158.649 81.1508 158.649 79.0442 157.776 77.4594 156.192 75.8747 154.607 75.0024 152.5 75.0024 150.259 75.0024 148.018 75.8753 145.911 77.4594 144.326L127.73 94.0555C129.658 92.128 129.658 89.0027 127.73 87.0758 125.803 85.1483 122.677 85.1483 120.751 87.0758L70.4792 137.347C63.359 144.467 63.359 156.052 70.4792 163.173 73.9286 166.622 78.514 168.521 83.3928 168.521 88.271 168.521 92.8565 166.622 96.3052 163.173L163.173 96.3046C166.622 92.8552 168.521 88.2691 168.521 83.3909Z" transform="matrix(0.697653 0.716436 -0.730171 0.711028 516.143 125.674)"/><path d="M64.9521 126.584 43.9407 105.573C35.0008 96.6332 35.0008 82.0866 43.9407 73.1468L73.1474 43.9407C77.4787 39.6094 83.2362 37.2249 89.3602 37.2249 95.4843 37.2249 101.242 39.61 105.573 43.9407L126.585 64.9521C128.513 66.8796 131.638 66.8796 133.565 64.9521 135.492 63.0246 135.492 59.8993 133.565 57.9725L112.553 36.9611C106.358 30.7658 98.121 27.3543 89.3596 27.3543 80.5982 27.3543 72.3611 30.7664 66.1659 36.9611L65.1735 37.9534 43.5363 16.3142C42.6108 15.388 41.3553 14.8681 40.0465 14.8681 38.7377 14.8681 37.4816 15.388 36.5567 16.3142L29.9256 22.9453 8.42574 1.44548C6.49823-0.48204 3.37299-0.48204 1.44612 1.44548-0.481398 3.37299-0.481398 6.49823 1.44612 8.4251L22.946 29.925 16.3155 36.5561C14.388 38.4836 14.388 41.6088 16.3155 43.5357L37.9528 65.1729 36.9604 66.1652C24.1713 78.9544 24.1713 99.7636 36.9604 112.552L57.9718 133.563C58.9353 134.527 60.1991 135.01 61.4616 135.01 62.7242 135.01 63.988 134.528 64.9515 133.563 66.8796 131.637 66.8796 128.511 64.9521 126.584ZM44.933 58.1933 26.785 40.0465 40.0465 26.785 58.1946 44.933 51.5635 51.5635 44.933 58.1933Z" transform="matrix(0.697653 0.716436 -0.730171 0.711028 516.143 125.674)"/><path d="M260.534 147.729C260.534 142.851 258.634 138.265 255.185 134.816 251.736 131.367 247.15 129.468 242.271 129.468 237.393 129.468 232.808 131.367 229.359 134.816L134.816 229.358C131.367 232.808 129.468 237.393 129.468 242.271 129.468 247.15 131.367 251.735 134.816 255.184 138.266 258.634 142.851 260.533 147.73 260.533 152.608 260.533 157.194 258.634 160.642 255.184L255.185 160.642C258.634 157.192 260.534 152.606 260.534 147.729ZM248.205 153.661 153.662 248.203C150.391 251.474 145.068 251.475 141.797 248.203 138.525 244.932 138.525 239.61 141.797 236.338L236.339 141.796C237.924 140.211 240.031 139.339 242.272 139.339 244.513 139.339 246.62 140.212 248.205 141.796 249.79 143.381 250.662 145.487 250.662 147.729 250.662 149.97 249.79 152.077 248.205 153.661Z" transform="matrix(0.697653 0.716436 -0.730171 0.711028 516.143 125.674)"/><path d="M257.951 174.165 285.687 201.901C290.031 206.244 292.94 211.712 294.103 217.714 294.56 220.073 296.626 221.713 298.943 221.713 299.254 221.713 299.57 221.683 299.886 221.622 302.562 221.104 304.312 218.515 303.794 215.838 302.257 207.896 298.409 200.662 292.667 194.922L264.931 167.186C263.004 165.258 259.878 165.258 257.951 167.186 256.023 169.112 256.023 172.237 257.951 174.165Z" transform="matrix(0.697653 0.716436 -0.730171 0.711028 516.143 125.674)"/><path d="M160.917 107.869C158.99 109.797 158.99 112.922 160.917 114.849L181.041 134.973C183.543 137.474 183.543 141.545 181.041 144.047 178.539 146.549 174.469 146.548 171.967 144.047L151.843 123.923C149.916 121.995 146.79 121.995 144.863 123.923 142.936 125.85 142.936 128.975 144.863 130.902L164.988 151.027C168.163 154.202 172.334 155.789 176.505 155.789 180.675 155.789 184.846 154.201 188.022 151.027 194.372 144.677 194.372 134.343 188.022 127.993L167.897 107.868C165.97 105.941 162.844 105.941 160.917 107.869Z" transform="matrix(0.697653 0.716436 -0.730171 0.711028 516.143 125.674)"/><path d="M151.027 188.02C154.104 184.945 155.798 180.853 155.798 176.503 155.798 172.154 154.104 168.062 151.027 164.987L130.903 144.862C128.976 142.935 125.851 142.935 123.923 144.862 121.996 146.79 121.996 149.915 123.923 151.842L144.048 171.967C145.259 173.179 145.926 174.79 145.926 176.503 145.926 178.217 145.259 179.828 144.048 181.04 141.546 183.542 137.476 183.541 134.974 181.04L114.849 160.915C112.922 158.988 109.797 158.988 107.87 160.915 105.942 162.843 105.942 165.968 107.87 167.895L127.994 188.019C131.169 191.195 135.339 192.782 139.511 192.782 143.681 192.783 147.853 191.195 151.027 188.02Z" transform="matrix(0.697653 0.716436 -0.730171 0.711028 516.143 125.674)"/><path d="M327.189 320.208 301.063 294.083 307.694 287.452C309.621 285.524 309.621 282.399 307.694 280.472L286.056 258.835 292.667 252.223C297.436 247.454 300.963 241.535 302.867 235.104 303.64 232.49 302.148 229.744 299.535 228.971 296.92 228.197 294.174 229.69 293.401 232.303 291.964 237.16 289.296 241.635 285.687 245.244L245.243 285.688C239.454 291.477 231.759 294.665 223.573 294.665 215.386 294.665 207.69 291.477 201.902 285.688L174.166 257.952C172.238 256.025 169.113 256.025 167.186 257.952 165.259 259.88 165.259 263.005 167.186 264.932L194.922 292.668C202.575 300.321 212.751 304.535 223.574 304.535 234.396 304.535 244.572 300.321 252.225 292.668L258.837 286.057 280.474 307.695C281.4 308.621 282.656 309.141 283.964 309.141 285.273 309.141 286.529 308.621 287.454 307.695L294.085 301.064 320.21 327.189C321.174 328.153 322.438 328.635 323.7 328.635 324.963 328.635 326.227 328.153 327.19 327.189 329.116 325.26 329.116 322.135 327.189 320.208ZM283.962 297.223 265.814 279.075 272.445 272.445 279.076 265.814 297.224 283.961 290.595 290.59C290.594 290.591 290.593 290.591 290.593 290.592 290.592 290.592 290.592 290.593 290.592 290.593L283.962 297.223Z" transform="matrix(0.697653 0.716436 -0.730171 0.711028 516.143 125.674)"/></g></g></g><rect x="426" y="138" width="225" height="235" fill="#FFFFFF"/><g clip-path="url(#clip25)"><g clip-path="url(#clip26)"><g clip-path="url(#clip27)"><path d="M89.9531 94.6875 89.9531 114.24C88.4381 113.814 86.8758 113.625 85.2188 113.625 80.2477 113.625 75.75 115.566 72.3412 118.691L65.5238 116.986C61.5469 115.992 58.2328 113.72 55.8183 110.69 53.4511 107.66 52.0781 103.825 52.0781 99.7533 52.0781 91.3261 58.0434 84.0352 66.3286 82.3781L75.75 80.4844Z" fill="#D3A06C" transform="matrix(1.0231 0 -0 1 5 396)"/><path d="M293.531 255.656 293.531 274.594C293.531 285.057 278.713 293.531 260.391 293.531 242.069 293.531 227.25 285.057 227.25 274.594L227.25 269.859 227.25 255.656C227.25 266.119 242.069 274.594 260.391 274.594 278.713 274.594 293.531 266.119 293.531 255.656Z" fill="#FCD770" transform="matrix(1.0231 0 -0 1 5 396)"/><path d="M268.676 237.334C282.974 239.417 293.531 246.803 293.531 255.656 293.531 266.119 278.713 274.594 260.391 274.594 242.069 274.594 227.25 266.119 227.25 255.656 227.25 253.999 227.629 252.437 228.339 250.922 230.99 245.004 238.518 240.222 248.318 238.044 252.058 237.192 256.13 236.719 260.391 236.719 263.279 236.719 266.025 236.908 268.676 237.334Z" fill="#FFC729" transform="matrix(1.0231 0 -0 1 5 396)"/><path d="M269.859 227.25C269.859 230.706 269.433 234.067 268.676 237.334 266.025 236.908 263.279 236.719 260.391 236.719 256.13 236.719 252.058 237.192 248.318 238.044L248.318 237.997C249.975 234.778 250.922 231.132 250.922 227.25 250.922 214.183 240.317 203.578 227.25 203.578 214.183 203.578 203.578 214.183 203.578 227.25 203.578 240.317 214.183 250.922 227.25 250.922L228.292 250.922 228.339 250.922C227.629 252.437 227.25 253.999 227.25 255.656L227.25 269.859C226.587 269.859 225.877 269.859 225.214 269.812 202.631 268.723 184.641 250.07 184.641 227.25 184.641 203.72 203.72 184.641 227.25 184.641 228.102 184.641 228.954 184.688 229.807 184.735 252.153 186.061 269.859 204.572 269.859 227.25Z" fill="#FFC729" transform="matrix(1.0231 0 -0 1 5 396)"/><path d="M250.922 227.25C250.922 231.132 249.975 234.778 248.318 237.997L248.318 238.044C238.518 240.222 230.99 245.004 228.339 250.922L228.292 250.922C227.96 250.922 227.581 250.922 227.25 250.922 214.183 250.922 203.578 240.317 203.578 227.25 203.578 214.183 214.183 203.578 227.25 203.578 240.317 203.578 250.922 214.183 250.922 227.25Z" fill="#FCD770" transform="matrix(1.0231 0 -0 1 5 396)"/><path d="M227.25 71.0156C227.25 71.0156 222.516 94.6875 208.313 113.625 207.65 113.625 206.987 113.672 206.324 113.814 205.898 113.909 177.634 119.922 146.624 124.041 151.973 113.294 154.388 102.263 155.43 94.6875L156.234 94.6875C172.899 94.6875 184.641 86.5444 197.281 79.8216L198.844 78.9694C207.271 74.6138 216.172 71.0156 227.25 71.0156Z" fill="#D3A06C" transform="matrix(1.0231 0 -0 1 5 396)"/><path d="M217.592 121.105C218.113 123.567 217.639 126.124 216.266 128.254 214.893 130.385 212.763 131.805 210.301 132.373 210.064 132.42 209.449 132.563 208.407 132.752 199.459 134.598 161.632 142.173 126.787 145.345 117.223 146.245 107.896 146.766 99.4219 146.766 98.9011 146.766 98.3803 146.718 97.9069 146.624 101.742 143.167 104.156 138.149 104.156 132.563 104.156 130.905 103.92 129.296 103.541 127.781 116.797 127.497 131.994 125.982 146.624 124.041 177.634 119.922 205.898 113.909 206.324 113.814 206.987 113.672 207.65 113.625 208.313 113.625 212.763 113.625 216.645 116.75 217.592 121.105Z" fill="#FF826E" transform="matrix(1.0231 0 -0 1 5 396)"/><path d="M198.844 33.1406 198.844 78.9694C198.323 79.2534 197.802 79.5375 197.281 79.8216 192.973 66.4706 180.474 56.8125 165.703 56.8125 147.381 56.8125 132.563 71.6311 132.563 89.9531L132.563 58.4222 132.563 52.0781 132.563 33.1406C145.629 33.1406 156.234 22.5356 156.234 9.46875L175.172 9.46875C175.172 22.5356 185.777 33.1406 198.844 33.1406Z" fill="#B4DD7F" transform="matrix(1.0231 0 -0 1 5 396)"/><path d="M198.844 9.46875 198.844 33.1406C185.777 33.1406 175.172 22.5356 175.172 9.46875Z" fill="#A0D468" transform="matrix(1.0231 0 -0 1 5 396)"/><path d="M197.281 79.8216C184.641 86.5444 172.899 94.6875 156.234 94.6875L155.43 94.6875C156.187 88.9589 156.234 85.2188 156.234 85.2188L144.872 90.0952C140.848 91.7995 136.729 93.3145 132.563 94.5455L132.563 89.9531C132.563 71.6311 147.381 56.8125 165.703 56.8125 180.474 56.8125 192.973 66.4706 197.281 79.8216Z" fill="#FCD770" transform="matrix(1.0231 0 -0 1 5 396)"/><path d="M132.563 9.46875 156.234 9.46875C156.234 22.5356 145.629 33.1406 132.563 33.1406Z" fill="#A0D468" transform="matrix(1.0231 0 -0 1 5 396)"/><path d="M108.891 98.9958C116.939 98.3803 124.845 96.8653 132.563 94.5455 136.729 93.3145 140.848 91.7995 144.872 90.0952L156.234 85.2188C156.234 85.2188 156.187 88.9589 155.43 94.6875 154.388 102.263 151.973 113.294 146.624 124.041 131.994 125.982 116.797 127.497 103.541 127.781 101.836 121.153 96.5812 115.945 89.9531 114.24L89.9531 94.6875 89.9531 89.9531C89.9531 92.557 90.9947 94.9242 92.7464 96.6286 94.4508 98.3803 96.818 99.4219 99.4219 99.4219 102.594 99.4219 105.766 99.2798 108.891 98.9958Z" fill="#D3A06C" transform="matrix(1.0231 0 -0 1 5 396)"/><path d="M132.563 89.9531 132.563 94.5455C124.845 96.8653 116.939 98.3803 108.891 98.9958L108.891 80.4844 99.4219 80.4844C97.8122 80.4844 96.2498 80.9105 94.9242 81.6206 96.6759 67.6542 108.607 56.8125 123.094 56.8125 126.408 56.8125 129.58 57.3806 132.563 58.4222Z" fill="#FCD770" transform="matrix(1.0231 0 -0 1 5 396)"/><path d="M227.25 184.641C228.102 184.641 228.954 184.688 229.807 184.735L208.407 132.752C199.459 134.598 161.632 142.173 126.787 145.345 117.223 146.245 107.896 146.766 99.4219 146.766 98.9011 146.766 98.3803 146.718 97.9069 146.624 95.6817 148.612 92.9358 150.127 89.9531 150.885L89.9531 209.827C89.9531 214.23 86.4023 217.781 81.9994 217.781 77.9752 217.781 74.1877 216.219 71.347 213.378 68.0803 210.112 66.2813 205.756 66.2813 201.164 66.2813 199.601 66.4706 198.086 66.8967 196.619L79.4428 150.6C77.123 149.843 75.0398 148.707 73.1934 147.192L49.4269 194.677C46.4916 200.453 44.5031 206.655 43.5089 213.047 42.8934 216.503 42.6094 220.006 42.6094 223.557 42.6094 240.648 48.8114 256.508 59.2744 268.77 69.69 280.985 84.3666 289.554 101.268 292.111 107.044 293.01 112.82 293.531 118.359 293.531L146.766 293.531 151.5 293.531C161.348 293.531 170.958 293.105 180.048 292.49 198.181 291.164 214.088 282.642 225.214 269.812 202.631 268.723 184.641 250.07 184.641 227.25 184.641 203.72 203.72 184.641 227.25 184.641Z" fill="#CF9E76" transform="matrix(1.0231 0 -0 1 5 396)"/><path d="M108.891 80.4844 108.891 98.9958C105.766 99.2798 102.594 99.4219 99.4219 99.4219 96.818 99.4219 94.4508 98.3803 92.7464 96.6286 90.9947 94.9242 89.9531 92.557 89.9531 89.9531 89.9531 86.355 91.9889 83.2303 94.9242 81.6206 96.2498 80.9105 97.8122 80.4844 99.4219 80.4844Z" fill="#B27946" transform="matrix(1.0231 0 -0 1 5 396)"/><path d="M89.9531 9.46875 106.713 26.2284C97.4334 35.4605 82.4728 35.4605 73.1934 26.2284Z" fill="#A0D468" transform="matrix(1.0231 0 -0 1 5 396)"/><path d="M106.713 26.2284C97.4334 35.4605 82.4728 35.4605 73.1934 26.2284L64.1034 35.3184C73.3355 44.5978 73.3355 59.5584 64.1034 68.8378L75.75 80.4844 89.9531 94.6875 89.9531 89.9531C89.9531 86.355 91.9889 83.2303 94.9242 81.6206 96.6759 67.6542 108.607 56.8125 123.094 56.8125 126.408 56.8125 129.58 57.3806 132.563 58.4222L132.563 52.0781Z" fill="#B4DD7F" transform="matrix(1.0231 0 -0 1 5 396)"/><path d="M47.3438 52.0781 64.1034 35.3184C73.3355 44.5978 73.3355 59.5584 64.1034 68.8378Z" fill="#A0D468" transform="matrix(1.0231 0 -0 1 5 396)"/><path d="M103.541 127.781C103.92 129.296 104.156 130.905 104.156 132.563 104.156 138.149 101.742 143.167 97.9069 146.624 95.6817 148.612 92.9358 150.127 89.9531 150.885 88.4381 151.311 86.8758 151.5 85.2188 151.5 83.2303 151.5 81.2892 151.169 79.4428 150.6 77.123 149.843 75.0398 148.707 73.1934 147.192 68.9798 143.688 66.2813 138.433 66.2813 132.563 66.2813 127.071 68.6011 122.147 72.3412 118.691 75.75 115.566 80.2477 113.625 85.2188 113.625 86.8758 113.625 88.4381 113.814 89.9531 114.24 96.5812 115.945 101.836 121.153 103.541 127.781Z" fill="#FC6E51" transform="matrix(1.0231 0 -0 1 5 396)"/><path d="M89.9531 150.885 89.9531 209.827C89.9531 214.23 86.4023 217.781 81.9994 217.781 77.9752 217.781 74.1877 216.219 71.347 213.378 68.0803 210.112 66.2813 205.756 66.2813 201.164 66.2813 199.601 66.4706 198.086 66.8967 196.619L79.4428 150.6C81.2892 151.169 83.2303 151.5 85.2188 151.5 86.8758 151.5 88.4381 151.311 89.9531 150.885Z" fill="#FF826E" transform="matrix(1.0231 0 -0 1 5 396)"/><path d="M73.1934 147.192 49.4269 194.677C46.4916 200.453 44.5031 206.655 43.5089 213.047L43.4616 213.047 36.7861 213.047C31.3416 213.047 26.0864 211.485 21.5887 208.739 17.1384 205.945 13.3983 201.968 10.9364 197.045 9.98953 195.104 9.46875 192.973 9.46875 190.795 9.46875 186.866 11.1258 183.126 14.0138 180.474L66.2813 132.563C66.2813 138.433 68.9798 143.688 73.1934 147.192Z" fill="#FF826E" transform="matrix(1.0231 0 -0 1 5 396)"/><path d="M151.5 168.946 151.5 156.234 142.031 156.234 142.031 166.082C140.478 165.859 138.907 165.703 137.297 165.703L132.563 165.703 132.563 156.234 123.094 156.234 123.094 165.703 104.156 165.703 104.156 189.375C104.156 202.56 111.916 213.937 123.094 219.273L123.094 255.538C117.379 251.211 113.625 244.422 113.625 236.723L113.625 222.52 104.156 222.52 104.156 236.723C104.156 249.909 111.916 261.285 123.094 266.621L123.094 279.328 132.563 279.328 132.563 269.481C134.115 269.703 135.687 269.859 137.297 269.859L142.031 269.859 142.031 279.328 151.5 279.328 151.5 269.859 170.438 269.859 170.438 246.188C170.438 233.002 162.678 221.626 151.5 216.29L151.5 180.025C157.214 184.352 160.969 191.141 160.969 198.839L160.969 213.042 170.438 213.042 170.438 198.839C170.438 185.659 162.678 174.282 151.5 168.946ZM113.625 189.375 113.625 175.172 123.094 175.172 123.094 208.189C117.379 203.867 113.625 197.078 113.625 189.375ZM137.297 260.391C135.678 260.391 134.092 260.225 132.563 259.912L132.563 222.137C134.115 222.359 135.687 222.516 137.297 222.516 138.916 222.516 140.502 222.681 142.031 222.994L142.031 260.391ZM160.969 246.188 160.969 260.391 151.5 260.391 151.5 227.373C157.214 231.696 160.969 238.485 160.969 246.188ZM142.031 213.426C140.478 213.203 138.907 213.047 137.297 213.047 135.678 213.047 134.092 212.881 132.563 212.569L132.563 175.172 137.297 175.172C138.916 175.172 140.502 175.338 142.031 175.65Z" transform="matrix(1.0231 0 -0 1 5 396)"/><path d="M274.139 233.561C274.419 231.473 274.594 229.366 274.594 227.25 274.594 203.128 256.447 183.201 233.092 180.304L214.728 135.706C216.943 134.584 218.856 132.946 220.238 130.806 222.298 127.62 222.994 123.818 222.194 120.106 221.375 116.29 218.936 113.128 215.764 111.144 227.586 92.8032 231.705 72.862 231.89 71.9436L233.026 66.2813 227.25 66.2813C218.207 66.2813 210.576 68.478 203.578 71.508L203.578 4.73438 127.828 4.73438 127.828 40.6493 89.9531 2.77434 40.6493 52.0781 66.1487 77.5775 65.4149 77.7242C54.9424 79.8168 47.3438 89.0867 47.3438 99.7675 47.3438 110.103 54.3459 119.07 64.378 121.579 62.9767 124.225 62.0866 127.146 61.7789 130.266L10.8086 176.985C6.95006 180.526 4.73438 185.559 4.73438 190.805 4.73438 193.693 5.42086 196.59 6.71334 199.189 12.4514 210.656 23.9749 217.781 36.8003 217.781L38.2111 217.781C38.0502 219.703 37.875 221.626 37.875 223.557 37.875 259.936 64.8183 291.424 100.558 296.817 106.964 297.773 112.948 298.266 118.359 298.266L151.5 298.266C160.737 298.266 170.456 297.906 180.389 297.196 196.486 296.05 211.371 289.535 223.107 278.713 226.142 289.952 241.411 298.266 260.391 298.266 281.629 298.266 298.266 287.869 298.266 274.594L298.266 255.656C298.266 245.435 288.38 236.937 274.139 233.561ZM288.797 255.656C288.797 262.374 277.131 269.859 260.391 269.859 243.65 269.859 231.984 262.374 231.984 255.656 231.984 248.938 243.65 241.453 260.391 241.453 277.131 241.453 288.797 248.938 288.797 255.656ZM244.8 234.025C236.226 236.387 229.428 240.653 225.692 246.027 215.987 245.226 208.313 237.164 208.313 227.25 208.313 216.806 216.806 208.313 227.25 208.313 237.694 208.313 246.188 216.806 246.188 227.25 246.188 229.617 245.638 231.866 244.8 234.025ZM265.125 227.25C265.125 228.893 264.997 230.526 264.789 232.15 263.345 232.046 261.882 231.984 260.391 231.984 258.611 231.984 256.878 232.084 255.169 232.226 255.457 230.583 255.656 228.921 255.656 227.25 255.656 211.584 242.916 198.844 227.25 198.844 211.584 198.844 198.844 211.584 198.844 227.25 198.844 241.311 209.117 252.981 222.549 255.235 222.544 255.377 222.516 255.514 222.516 255.656L222.516 264.798C203.862 262.455 189.375 246.528 189.375 227.25 189.375 206.367 206.367 189.375 227.25 189.375 248.133 189.375 265.125 206.367 265.125 227.25ZM85.2188 156.234 85.2188 209.813C85.2188 211.593 83.7653 213.047 81.9852 213.047 79.2298 213.047 76.6353 211.972 74.6848 210.022 72.3507 207.688 71.0156 204.459 71.0156 201.154 71.0156 200.042 71.1624 198.929 71.4607 197.854L82.8752 155.998C83.6564 156.073 84.4186 156.234 85.2188 156.234ZM85.2188 146.766C77.3881 146.766 71.0156 140.393 71.0156 132.563 71.0156 124.732 77.3881 118.359 85.2188 118.359 93.0494 118.359 99.4219 124.732 99.4219 132.563 99.4219 140.393 93.0494 146.766 85.2188 146.766ZM160.543 14.2031 170.868 14.2031C172.871 26.0722 182.245 35.4415 194.114 37.4489L194.114 65.0266C187.084 57.0066 176.9 52.0781 165.703 52.0781 154.388 52.0781 144.242 57.0918 137.297 64.984L137.297 37.4489C149.166 35.4415 158.535 26.0722 160.543 14.2031ZM142.988 85.7443C141.141 86.5349 139.271 87.2309 137.401 87.9173 138.452 73.2029 150.728 61.5469 165.703 61.5469 176.796 61.5469 186.624 67.9146 191.292 77.6958 190.677 78.0367 190.057 78.3728 189.446 78.7137 180.276 83.8079 171.55 88.6417 160.727 89.7211 160.94 87.1172 160.969 85.4839 160.969 85.2566L161.03 78.013ZM127.828 90.9663C123.155 92.2114 118.421 93.1678 113.625 93.7832L113.625 75.75 101.496 75.75C105.188 67.356 113.511 61.5469 123.094 61.5469 124.699 61.5469 126.275 61.7552 127.828 62.0724ZM99.4219 85.2188 104.156 85.2188 104.156 94.5881C102.584 94.6544 101.003 94.6875 99.4219 94.6875 96.8085 94.6875 94.6875 92.5618 94.6875 89.9531 94.6875 87.3445 96.8085 85.2188 99.4219 85.2188ZM123.094 52.0781C107.158 52.0781 93.5607 63.4832 90.5828 78.922 88.7695 80.3802 87.2782 82.2266 86.355 84.395L70.4806 68.5206C73.8941 63.7436 75.7642 58.0529 75.7642 52.0639 75.7642 46.0797 73.9036 40.3984 70.4948 35.6214L73.5106 32.6056C78.2829 36.0144 83.9689 37.875 89.9531 37.875 95.9374 37.875 101.623 36.0144 106.396 32.6056L126.124 52.3338C125.115 52.2438 124.116 52.0781 123.094 52.0781ZM94.6875 103.285C96.1741 103.815 97.7554 104.156 99.4219 104.156 115.774 104.156 131.687 100.89 146.714 94.446L150.885 92.6612C150.051 99.3367 148.044 109.591 143.399 119.718 130.995 121.309 118.274 122.554 106.807 122.956 104.407 117.583 100.08 113.265 94.6875 110.903ZM108.867 132.349C149.819 130.64 204.89 118.984 207.318 118.464 209.846 117.929 212.403 119.605 212.943 122.1 213.208 123.34 212.976 124.604 212.289 125.665 211.593 126.744 210.561 127.454 209.316 127.724 206.726 128.273 148.896 140.483 106.959 141.894 108.195 139.025 108.891 135.877 108.891 132.563 108.891 132.487 108.872 132.42 108.867 132.349ZM205.647 109.17C205.543 109.189 205.439 109.179 205.335 109.203 203.81 109.53 181.024 114.349 154.312 118.222 156.93 111.348 158.521 104.739 159.482 99.2562 173.264 98.4371 183.836 92.6564 194.038 86.9894 202.721 82.1651 211.006 77.5633 221.048 76.1761 218.846 83.8126 214.074 97.3198 205.647 109.17ZM194.109 27.734C187.486 26.0107 182.302 20.8265 180.579 14.2031L194.109 14.2031ZM150.828 14.2031C149.104 20.8265 143.92 26.0107 137.297 27.734L137.297 14.2031ZM99.4834 25.6935C93.6601 28.9791 86.2508 28.9791 80.4276 25.6935L89.9531 16.1632ZM63.6205 42.4958C65.3202 45.3742 66.2955 48.6362 66.2955 52.0639 66.2955 55.5011 65.3202 58.7678 63.6111 61.651L54.0382 52.0781ZM56.8125 99.7675C56.8125 93.5844 61.2155 88.2203 67.2755 87.0083L74.1924 85.6259 85.2188 96.6475 85.2188 108.891C79.9825 108.891 75.1866 110.652 71.2618 113.54L66.6695 112.389C60.8651 110.941 56.8125 105.747 56.8125 99.7675ZM39.6172 208.313 36.8003 208.313C27.5872 208.313 19.302 203.195 15.1831 194.957 14.5393 193.664 14.2031 192.235 14.2031 190.805 14.2031 188.21 15.2968 185.72 17.2095 183.968L63.3743 141.652C64.3638 144.02 65.7889 146.131 67.4506 148.039L45.1896 192.561C42.6946 197.556 40.8482 202.863 39.6172 208.313ZM179.712 287.755C170.007 288.447 160.514 288.797 151.5 288.797L118.359 288.797C113.421 288.797 107.906 288.342 101.969 287.448 70.8262 282.756 47.3438 255.287 47.3438 223.557 47.3438 214.32 49.5263 205.069 53.6594 196.799L71.8583 160.401 62.3233 195.364C61.812 197.244 61.5469 199.194 61.5469 201.154 61.5469 206.949 63.8951 212.621 67.9904 216.716 71.7305 220.456 76.7016 222.516 81.9852 222.516 88.9921 222.516 94.6875 216.82 94.6875 209.813L94.6875 154.227C96.3398 153.503 97.8595 152.556 99.2893 151.491 99.3319 151.491 99.3745 151.5 99.4219 151.5 135.697 151.5 188.083 141.657 205.5 138.173L222.781 180.133C198.768 182.397 179.906 202.655 179.906 227.25 179.906 249.203 194.947 267.663 215.253 272.994 205.32 281.596 193.002 286.808 179.712 287.755ZM260.391 288.797C243.65 288.797 231.984 281.312 231.984 274.594L231.984 271.436C238.873 276.293 248.948 279.328 260.391 279.328 271.834 279.328 281.908 276.293 288.797 271.436L288.797 274.594C288.797 281.312 277.131 288.797 260.391 288.797Z" transform="matrix(1.0231 0 -0 1 5 396)"/></g></g></g><g clip-path="url(#clip28)"><g clip-path="url(#clip29)"><g clip-path="url(#clip30)"><path d="M-117.079-151.6C-87.5976-151.574-63.7045-127.681-63.6785-98.1996L-63.6785-65.5924-170.526-65.5924-170.526-98.1996C-170.5-127.699-146.579-151.6-117.079-151.6L-117.079-151.6Z" fill="#5E9641" transform="matrix(1.02487 8.95966e-08 8.74228e-08 -1 450.93 423.168)"/><path d="M-192.973-165.966-136.265-165.966C-130.06-165.983-124.564-161.962-122.702-156.042-152.479-153.128-175.2-128.119-175.252-98.1996L-175.252-65.5924C-175.252-62.9827-173.136-60.8668-170.526-60.8668L-153.703-60.8668-153.703-4.72568C-153.703-2.11592-151.587 0-148.977 0-146.367 0-144.251-2.11592-144.251-4.72568L-144.251-60.8668-89.9061-60.8668-89.9061-4.72568C-89.9061-2.11592-87.7901 0-85.1804 0-82.5706 0-80.4547-2.11592-80.4547-4.72568L-80.4547-60.8668-63.6785-60.8668C-61.0688-60.8668-58.9529-62.9827-58.9529-65.5924L-58.9529-98.1996C-58.993-128.629-82.4785-153.887-112.826-156.136-114.906-167.379-124.737-175.518-136.17-175.465L-192.879-175.465C-200.813-175.465-207.245-181.896-207.245-189.831-207.245-197.765-200.813-204.197-192.879-204.197L-58.8583-204.197C-45.7044-204.197-35.0409-214.86-35.0409-228.014-35.0409-241.168-45.7044-251.832-58.8583-251.832L-140.093-251.832C-142.703-251.832-144.818-249.716-144.818-247.106-144.818-244.496-142.703-242.38-140.093-242.38L-58.8583-242.38C-50.9239-242.38-44.4923-235.949-44.4923-228.014-44.4923-220.08-50.9239-213.648-58.8583-213.648L-192.973-213.648C-206.127-213.648-216.791-202.985-216.791-189.831-216.791-176.677-206.127-166.013-192.973-166.013L-192.973-165.966ZM-117.079-147.063C-90.2073-147.037-68.4302-125.26-68.4042-98.3887L-68.4042-70.5071-165.8-70.5071-165.8-98.3887C-165.671-125.205-143.895-146.875-117.079-146.874L-117.079-147.063Z" fill="#022400" transform="matrix(1.02487 8.95966e-08 8.74228e-08 -1 450.93 423.168)"/><path d="M-85.1804-90.0242-148.977-90.0242C-151.587-90.0242-153.703-87.9083-153.703-85.2985-153.703-82.6888-151.587-80.5728-148.977-80.5728L-85.1804-80.5728C-82.5706-80.5728-80.4547-82.6888-80.4547-85.2985-80.4547-87.9083-82.5706-90.0242-85.1804-90.0242L-85.1804-90.0242Z" fill="#022400" transform="matrix(1.02487 8.95966e-08 8.74228e-08 -1 450.93 423.168)"/><path d="M-153.703-108.596C-153.703-105.986-151.587-103.87-148.977-103.87L-85.1804-103.87C-82.5706-103.87-80.4547-105.986-80.4547-108.596-80.4547-111.206-82.5706-113.322-85.1804-113.322L-148.977-113.322C-151.587-113.322-153.703-111.206-153.703-108.596Z" fill="#022400" transform="matrix(1.02487 8.95966e-08 8.74228e-08 -1 450.93 423.168)"/></g></g></g><g clip-path="url(#clip31)"><g clip-path="url(#clip32)"><g clip-path="url(#clip33)"><path d="M-112.203-145.287C-83.95-145.262-61.0518-122.364-61.0269-94.1105L-61.0269-62.8611-163.425-62.8611-163.425-94.1105C-163.4-122.382-140.475-145.287-112.203-145.287L-112.203-145.287Z" fill="#5E9641" transform="matrix(1.07315 9.38179e-08 8.74228e-08 -1 627 433.655)"/><path d="M-184.938-159.055-130.591-159.055C-124.644-159.071-119.377-155.218-117.593-149.544-146.13-146.752-167.904-122.784-167.954-94.1105L-167.954-62.8611C-167.954-60.3601-165.926-58.3322-163.425-58.3322L-147.302-58.3322-147.302-4.5289C-147.302-2.02782-145.275 0-142.774 0-140.272 0-138.245-2.02782-138.245-4.5289L-138.245-58.3322-86.1623-58.3322-86.1623-4.5289C-86.1623-2.02782-84.1345 0-81.6334 0-79.1323 0-77.1045-2.02782-77.1045-4.5289L-77.1045-58.3322-61.0269-58.3322C-58.5258-58.3322-56.498-60.3601-56.498-62.8611L-56.498-94.1105C-56.5365-123.273-79.044-147.479-108.127-149.635-110.121-160.409-119.543-168.21-130.5-168.158L-184.847-168.158C-192.451-168.158-198.615-174.322-198.615-181.926-198.615-189.53-192.451-195.694-184.847-195.694L-56.4075-195.694C-43.8013-195.694-33.5818-205.913-33.5818-218.519-33.5818-231.126-43.8013-241.345-56.4075-241.345L-134.259-241.345C-136.76-241.345-138.788-239.317-138.788-236.816-138.788-234.315-136.76-232.287-134.259-232.287L-56.4075-232.287C-48.8034-232.287-42.6396-226.123-42.6396-218.519-42.6396-210.915-48.8034-204.752-56.4075-204.752L-184.938-204.752C-197.544-204.752-207.763-194.532-207.763-181.926-207.763-169.32-197.544-159.1-184.938-159.1L-184.938-159.055ZM-112.203-140.939C-86.451-140.914-65.5807-120.044-65.5558-94.2917L-65.5558-67.5712-158.896-67.5712-158.896-94.2917C-158.772-119.991-137.903-140.759-112.203-140.758L-112.203-140.939Z" fill="#022400" transform="matrix(1.07315 9.38179e-08 8.74228e-08 -1 627 433.655)"/><path d="M-81.6334-86.2755-142.774-86.2755C-145.275-86.2755-147.302-84.2477-147.302-81.7466-147.302-79.2456-145.275-77.2177-142.774-77.2177L-81.6334-77.2177C-79.1323-77.2177-77.1045-79.2456-77.1045-81.7466-77.1045-84.2477-79.1323-86.2755-81.6334-86.2755L-81.6334-86.2755Z" fill="#022400" transform="matrix(1.07315 9.38179e-08 8.74228e-08 -1 627 433.655)"/><path d="M-147.302-104.074C-147.302-101.573-145.275-99.5452-142.774-99.5452L-81.6334-99.5452C-79.1323-99.5452-77.1045-101.573-77.1045-104.074-77.1045-106.575-79.1323-108.603-81.6334-108.603L-142.774-108.603C-145.275-108.603-147.302-106.575-147.302-104.074Z" fill="#022400" transform="matrix(1.07315 9.38179e-08 8.74228e-08 -1 627 433.655)"/></g></g></g><g clip-path="url(#clip34)"><g clip-path="url(#clip35)"><g clip-path="url(#clip36)"><path d="M-117.079-151.6C-87.5976-151.574-63.7045-127.681-63.6785-98.1996L-63.6785-65.5924-170.526-65.5924-170.526-98.1996C-170.5-127.699-146.579-151.6-117.079-151.6L-117.079-151.6Z" fill="#5E9641" transform="matrix(1.03601 9.05705e-08 8.74228e-08 -1 522.571 423.168)"/><path d="M-192.973-165.966-136.265-165.966C-130.06-165.983-124.564-161.962-122.702-156.042-152.479-153.128-175.2-128.119-175.252-98.1996L-175.252-65.5924C-175.252-62.9827-173.136-60.8668-170.526-60.8668L-153.703-60.8668-153.703-4.72568C-153.703-2.11592-151.587 0-148.977 0-146.367 0-144.251-2.11592-144.251-4.72568L-144.251-60.8668-89.9061-60.8668-89.9061-4.72568C-89.9061-2.11592-87.7901 0-85.1804 0-82.5706 0-80.4547-2.11592-80.4547-4.72568L-80.4547-60.8668-63.6785-60.8668C-61.0688-60.8668-58.9529-62.9827-58.9529-65.5924L-58.9529-98.1996C-58.993-128.629-82.4785-153.887-112.826-156.136-114.906-167.379-124.737-175.518-136.17-175.465L-192.879-175.465C-200.813-175.465-207.245-181.896-207.245-189.831-207.245-197.765-200.813-204.197-192.879-204.197L-58.8583-204.197C-45.7044-204.197-35.0409-214.86-35.0409-228.014-35.0409-241.168-45.7044-251.832-58.8583-251.832L-140.093-251.832C-142.703-251.832-144.818-249.716-144.818-247.106-144.818-244.496-142.703-242.38-140.093-242.38L-58.8583-242.38C-50.9239-242.38-44.4923-235.949-44.4923-228.014-44.4923-220.08-50.9239-213.648-58.8583-213.648L-192.973-213.648C-206.127-213.648-216.791-202.985-216.791-189.831-216.791-176.677-206.127-166.013-192.973-166.013L-192.973-165.966ZM-117.079-147.063C-90.2073-147.037-68.4302-125.26-68.4042-98.3887L-68.4042-70.5071-165.8-70.5071-165.8-98.3887C-165.671-125.205-143.895-146.875-117.079-146.874L-117.079-147.063Z" fill="#022400" transform="matrix(1.03601 9.05705e-08 8.74228e-08 -1 522.571 423.168)"/><path d="M-85.1804-90.0242-148.977-90.0242C-151.587-90.0242-153.703-87.9083-153.703-85.2985-153.703-82.6888-151.587-80.5728-148.977-80.5728L-85.1804-80.5728C-82.5706-80.5728-80.4547-82.6888-80.4547-85.2985-80.4547-87.9083-82.5706-90.0242-85.1804-90.0242L-85.1804-90.0242Z" fill="#022400" transform="matrix(1.03601 9.05705e-08 8.74228e-08 -1 522.571 423.168)"/><path d="M-153.703-108.596C-153.703-105.986-151.587-103.87-148.977-103.87L-85.1804-103.87C-82.5706-103.87-80.4547-105.986-80.4547-108.596-80.4547-111.206-82.5706-113.322-85.1804-113.322L-148.977-113.322C-151.587-113.322-153.703-111.206-153.703-108.596Z" fill="#022400" transform="matrix(1.03601 9.05705e-08 8.74228e-08 -1 522.571 423.168)"/></g></g></g><g clip-path="url(#clip37)"><g clip-path="url(#clip38)"><g clip-path="url(#clip39)"><path d="M-117.079-151.6C-87.5976-151.574-63.7045-127.681-63.6785-98.1996L-63.6785-65.5924-170.526-65.5924-170.526-98.1996C-170.5-127.699-146.579-151.6-117.079-151.6L-117.079-151.6Z" fill="#5E9641" transform="matrix(1.03601 9.05705e-08 8.74228e-08 -1 507.571 423.168)"/><path d="M-192.973-165.966-136.265-165.966C-130.06-165.983-124.564-161.962-122.702-156.042-152.479-153.128-175.2-128.119-175.252-98.1996L-175.252-65.5924C-175.252-62.9827-173.136-60.8668-170.526-60.8668L-153.703-60.8668-153.703-4.72568C-153.703-2.11592-151.587 0-148.977 0-146.367 0-144.251-2.11592-144.251-4.72568L-144.251-60.8668-89.9061-60.8668-89.9061-4.72568C-89.9061-2.11592-87.7901 0-85.1804 0-82.5706 0-80.4547-2.11592-80.4547-4.72568L-80.4547-60.8668-63.6785-60.8668C-61.0688-60.8668-58.9529-62.9827-58.9529-65.5924L-58.9529-98.1996C-58.993-128.629-82.4785-153.887-112.826-156.136-114.906-167.379-124.737-175.518-136.17-175.465L-192.879-175.465C-200.813-175.465-207.245-181.896-207.245-189.831-207.245-197.765-200.813-204.197-192.879-204.197L-58.8583-204.197C-45.7044-204.197-35.0409-214.86-35.0409-228.014-35.0409-241.168-45.7044-251.832-58.8583-251.832L-140.093-251.832C-142.703-251.832-144.818-249.716-144.818-247.106-144.818-244.496-142.703-242.38-140.093-242.38L-58.8583-242.38C-50.9239-242.38-44.4923-235.949-44.4923-228.014-44.4923-220.08-50.9239-213.648-58.8583-213.648L-192.973-213.648C-206.127-213.648-216.791-202.985-216.791-189.831-216.791-176.677-206.127-166.013-192.973-166.013L-192.973-165.966ZM-117.079-147.063C-90.2073-147.037-68.4302-125.26-68.4042-98.3887L-68.4042-70.5071-165.8-70.5071-165.8-98.3887C-165.671-125.205-143.895-146.875-117.079-146.874L-117.079-147.063Z" fill="#022400" transform="matrix(1.03601 9.05705e-08 8.74228e-08 -1 507.571 423.168)"/><path d="M-85.1804-90.0242-148.977-90.0242C-151.587-90.0242-153.703-87.9083-153.703-85.2985-153.703-82.6888-151.587-80.5728-148.977-80.5728L-85.1804-80.5728C-82.5706-80.5728-80.4547-82.6888-80.4547-85.2985-80.4547-87.9083-82.5706-90.0242-85.1804-90.0242L-85.1804-90.0242Z" fill="#022400" transform="matrix(1.03601 9.05705e-08 8.74228e-08 -1 507.571 423.168)"/><path d="M-153.703-108.596C-153.703-105.986-151.587-103.87-148.977-103.87L-85.1804-103.87C-82.5706-103.87-80.4547-105.986-80.4547-108.596-80.4547-111.206-82.5706-113.322-85.1804-113.322L-148.977-113.322C-151.587-113.322-153.703-111.206-153.703-108.596Z" fill="#022400" transform="matrix(1.03601 9.05705e-08 8.74228e-08 -1 507.571 423.168)"/></g></g></g><g clip-path="url(#clip40)"><g clip-path="url(#clip41)"><g clip-path="url(#clip42)"><path d="M-117.079-151.6C-87.5976-151.574-63.7045-127.681-63.6785-98.1996L-63.6785-65.5924-170.526-65.5924-170.526-98.1996C-170.5-127.699-146.579-151.6-117.079-151.6L-117.079-151.6Z" fill="#5E9641" transform="matrix(1.02487 8.95966e-08 8.74228e-08 -1 576.93 423.168)"/><path d="M-192.973-165.966-136.265-165.966C-130.06-165.983-124.564-161.962-122.702-156.042-152.479-153.128-175.2-128.119-175.252-98.1996L-175.252-65.5924C-175.252-62.9827-173.136-60.8668-170.526-60.8668L-153.703-60.8668-153.703-4.72568C-153.703-2.11592-151.587 0-148.977 0-146.367 0-144.251-2.11592-144.251-4.72568L-144.251-60.8668-89.9061-60.8668-89.9061-4.72568C-89.9061-2.11592-87.7901 0-85.1804 0-82.5706 0-80.4547-2.11592-80.4547-4.72568L-80.4547-60.8668-63.6785-60.8668C-61.0688-60.8668-58.9529-62.9827-58.9529-65.5924L-58.9529-98.1996C-58.993-128.629-82.4785-153.887-112.826-156.136-114.906-167.379-124.737-175.518-136.17-175.465L-192.879-175.465C-200.813-175.465-207.245-181.896-207.245-189.831-207.245-197.765-200.813-204.197-192.879-204.197L-58.8583-204.197C-45.7044-204.197-35.0409-214.86-35.0409-228.014-35.0409-241.168-45.7044-251.832-58.8583-251.832L-140.093-251.832C-142.703-251.832-144.818-249.716-144.818-247.106-144.818-244.496-142.703-242.38-140.093-242.38L-58.8583-242.38C-50.9239-242.38-44.4923-235.949-44.4923-228.014-44.4923-220.08-50.9239-213.648-58.8583-213.648L-192.973-213.648C-206.127-213.648-216.791-202.985-216.791-189.831-216.791-176.677-206.127-166.013-192.973-166.013L-192.973-165.966ZM-117.079-147.063C-90.2073-147.037-68.4302-125.26-68.4042-98.3887L-68.4042-70.5071-165.8-70.5071-165.8-98.3887C-165.671-125.205-143.895-146.875-117.079-146.874L-117.079-147.063Z" fill="#022400" transform="matrix(1.02487 8.95966e-08 8.74228e-08 -1 576.93 423.168)"/><path d="M-85.1804-90.0242-148.977-90.0242C-151.587-90.0242-153.703-87.9083-153.703-85.2985-153.703-82.6888-151.587-80.5728-148.977-80.5728L-85.1804-80.5728C-82.5706-80.5728-80.4547-82.6888-80.4547-85.2985-80.4547-87.9083-82.5706-90.0242-85.1804-90.0242L-85.1804-90.0242Z" fill="#022400" transform="matrix(1.02487 8.95966e-08 8.74228e-08 -1 576.93 423.168)"/><path d="M-153.703-108.596C-153.703-105.986-151.587-103.87-148.977-103.87L-85.1804-103.87C-82.5706-103.87-80.4547-105.986-80.4547-108.596-80.4547-111.206-82.5706-113.322-85.1804-113.322L-148.977-113.322C-151.587-113.322-153.703-111.206-153.703-108.596Z" fill="#022400" transform="matrix(1.02487 8.95966e-08 8.74228e-08 -1 576.93 423.168)"/></g></g></g><rect x="592" y="362" width="52" height="27" fill="#FFFFFF"/><text fill="#D8A32E" font-family="B Yekan,B Yekan_MSFontService,sans-serif" font-weight="700" font-size="64" direction="rtl" writing-mode="rl-tb" transform="translate(627.074 427)" x="358.167">  </text><text fill="#239999" font-family="B Yekan,B Yekan_MSFontService,sans-serif" font-weight="700" font-size="184" transform="translate(341.307 245)">404</text><text fill="#D8A32E" font-family="B Yekan,B Yekan_MSFontService,sans-serif" font-weight="700" font-size="88" direction="rtl" writing-mode="rl-tb" transform="translate(651.402 520)" x="325.333"> <tspan x="6.10352e-05" y="0">!</tspan></text></g></svg>
