<?xml version="1.0" encoding="iso-8859-1"?>
<!-- Generator: Adobe Illustrator 19.1.0, SVG Export Plug-In . SVG Version: 6.00 Build 0)  -->
<svg version="1.1" id="Capa_1" xmlns="http://www.w3.org/2000/svg" xmlns:xlink="http://www.w3.org/1999/xlink" x="0px" y="0px"
	 viewBox="0 0 478 478" style="enable-background:new 0 0 478 478;" xml:space="preserve">
<g>
	<path id="XMLID_1565_" d="M454.6,184.96h-16.1c-11.3-39.5-34.8-73.9-66.1-98.9c-3.4-19.5,3.6-37.2,11.8-50.1
		c6.3-10-1.8-22.8-13.6-21.3c-35.8,4.4-56.5,20.8-68.2,35.9c-16.4-4.5-33.6-6.9-51.4-6.9h-55.7C87.4,43.76,0,131.06,0,238.86
		c0,67.4,34.1,126.7,86,161.8v50.1c0,7,5.7,12.7,12.7,12.7H176c7,0,12.7-5.7,12.7-12.7v-16.9c2.1,0.1,4.3,0.1,6.4,0.1h54.8v16.8
		c0,7,5.7,12.7,12.7,12.7h77.3c7,0,12.7-5.7,12.7-12.7v-45.3c42.1-25.8,73.7-67,86.8-115.9h15.2c12.9,0,23.4-10.5,23.4-23.4v-57.7
		C478,195.46,467.5,184.96,454.6,184.96z M196.2,134.26c-57.7,0-104.6,46.9-104.6,104.6c0,11.1-9,20.1-20.1,20.1s-20.1-9-20.1-20.1
		c0-79.9,65-144.8,144.8-144.8c11.1,0,20.1,9,20.1,20.1C216.3,125.26,207.3,134.26,196.2,134.26z M358,189.06
		c-10.6,0-19.1-8.6-19.1-19.1c0-10.6,8.6-19.1,19.1-19.1c10.6,0,19.1,8.6,19.1,19.1C377.1,180.56,368.6,189.06,358,189.06z"/>
</g>
<g>
</g>
<g>
</g>
<g>
</g>
<g>
</g>
<g>
</g>
<g>
</g>
<g>
</g>
<g>
</g>
<g>
</g>
<g>
</g>
<g>
</g>
<g>
</g>
<g>
</g>
<g>
</g>
<g>
</g>
</svg>
