<svg id="Capa_1" enable-background="new 0 0 512 512" height="512" viewBox="0 0 512 512" width="512" xmlns="http://www.w3.org/2000/svg"><g><path d="m241 183.763c0-2.835 0-45.058 0-47.763-59.114 7.458-105 58.863-105 120 0 61.135 45.886 112.542 105 120 0-2.835 0-45.058 0-47.763-17.422-6.213-30-22.707-30-42.237h30c0 8.276 6.724 15 15 15s15-6.724 15-15-6.724-15-15-15c-24.814 0-45-20.186-45-45 0-19.53 12.578-36.024 30-42.237z"/><path d="m271 136v47.763c17.422 6.213 30 22.707 30 42.237h-30c0-8.276-6.724-15-15-15s-15 6.724-15 15 6.724 15 15 15c24.814 0 45 20.186 45 45 0 19.53-12.578 36.024-30 42.237v47.763c59.114-7.458 105-58.865 105-120 0-61.137-45.886-112.542-105-120z"/><path d="m181 76h45v33.023c9.695-1.968 19.724-3.023 30-3.023s20.305 1.055 30 3.023v-33.023h45l-75-76z"/><path d="m437 91c-37.174 0-71.038 17.349-93.065 43.975 16.595 12.083 30.363 27.493 40.834 45.242 10.508-17.425 30.436-29.217 52.231-29.217v45l75-75-75-75z"/><path d="m437 361c-21.795 0-41.723-11.792-52.231-29.216-10.472 17.749-24.24 33.159-40.834 45.242 22.027 26.625 55.891 43.974 93.065 43.974v45l75-75-75-75z"/><path d="m256 406c-10.276 0-20.305-1.055-30-3.023v33.023h-45l75 76 75-76h-45v-33.023c-9.695 1.968-19.724 3.023-30 3.023z"/><path d="m75 421c37.174 0 71.038-17.349 93.065-43.975-16.595-12.083-30.363-27.493-40.834-45.242-10.508 17.425-30.436 29.217-52.231 29.217v-45l-75 75 75 75z"/><path d="m75 151c21.795 0 41.723 11.792 52.231 29.216 10.472-17.749 24.24-33.159 40.834-45.242-22.027-26.625-55.891-43.974-93.065-43.974v-45l-75 75 75 75z"/></g></svg>